<?xml version="1.0" standalone="no"?>
<!DOCTYPE svg PUBLIC "-//W3C//DTD SVG 1.1//EN" "http://www.w3.org/Graphics/SVG/1.1/DTD/svg11.dtd" >
<svg xmlns="http://www.w3.org/2000/svg" xmlns:xlink="http://www.w3.org/1999/xlink" version="1.1">
<metadata></metadata>
<defs>
<font id="radiancebold" horiz-adv-x="1087" >
<font-face units-per-em="2048" ascent="1556" descent="-492" />
<missing-glyph horiz-adv-x="475" />
<glyph unicode="&#xfb01;" horiz-adv-x="1386" d="M68 750v231h168v78q0 205 101 309.5t290 104.5q125 0 239 -33l-45 -226q-53 27 -127 27q-82 0 -120.5 -46t-38.5 -124v-90h720q-6 -55 -6 -205v-573q0 -156 6 -203h-313q8 72 8 203v547h-415v-545q0 -102 4 -205h-308q4 184 5 205v545h-168zM942 1266q0 68 47 114.5 t114.5 46.5t116 -47t48.5 -114q0 -70 -48.5 -117t-116 -47t-114.5 47t-47 117z" />
<glyph unicode="&#xfb02;" horiz-adv-x="1388" d="M68 750v231h168v78q0 205 101 309.5t290 104.5q125 0 239 -33l-45 -226q-53 27 -127 27q-82 0 -120.5 -46t-38.5 -124v-90h245l-47 -231h-198v-545q0 -102 4 -205h-308q4 184 5 205v545h-168zM934 0q4 41 4 205v1044q0 90 -4 209h303q-6 -39 -6 -196v-1057q0 -164 6 -205 h-303z" />
<glyph horiz-adv-x="0" />
<glyph unicode="&#xd;" horiz-adv-x="681" />
<glyph unicode=" "  horiz-adv-x="475" />
<glyph unicode="&#x09;" horiz-adv-x="475" />
<glyph unicode="&#xa0;" horiz-adv-x="475" />
<glyph unicode="!" horiz-adv-x="667" d="M137 176q0 82 59.5 140.5t139.5 58.5q82 0 140.5 -58.5t58.5 -140.5q0 -80 -59.5 -138t-141.5 -58q-80 0 -138.5 57t-58.5 139zM174 510q6 68 6 231v406q0 172 -6 229h313q-4 -49 -4 -229v-406q0 -180 4 -231h-313z" />
<glyph unicode="&#x22;" horiz-adv-x="931" d="M98 1487h291l-47 -565h-199zM543 1487h291l-48 -565h-198z" />
<glyph unicode="#" horiz-adv-x="1191" d="M57 369l25 198h192l54 252h-195l25 193h198l62 331h198l-61 -331h213l63 331h201l-63 -331h178l-25 -193h-184l-51 -252h186l-22 -198h-197l-70 -351h-198l69 351h-215l-67 -351h-201l68 351h-183zM473 567h215l49 252h-213z" />
<glyph unicode="$" horiz-adv-x="1138" d="M190 90l9 258q117 -82 297 -82q152 0 151 127q0 84 -172 189q-250 145 -250 379q0 254 271 331l4 154h190v-137q129 -4 230 -31v-242q-113 61 -242 62q-61 0 -97 -30t-36 -83q0 -45 41 -86t139 -102q254 -162 254 -381q0 -266 -295 -344v-156h-195v135q-176 4 -299 39z " />
<glyph unicode="%" horiz-adv-x="1746" d="M76 1032.5q0 149.5 101.5 254t246.5 104.5q143 0 244.5 -102.5t101.5 -254.5q0 -150 -101.5 -254t-246.5 -104q-143 0 -244.5 103.5t-101.5 253zM246 0l1016 1374h241l-1018 -1374h-239zM285 1034q0 -70 38.5 -113.5t100.5 -43.5q59 0 99 45t40 110.5t-41 110.5 t-100.5 45t-98 -44t-38.5 -110zM977 338q0 152 101.5 255t246.5 103q143 0 244.5 -103.5t101.5 -253t-101.5 -253.5t-246.5 -104q-143 0 -244.5 103t-101.5 253zM1184 335.5q0 -67.5 40 -110.5t101 -43q59 0 98 44t39 112t-39 112t-100 44q-59 0 -99 -45.5t-40 -113z" />
<glyph unicode="&#x26;" horiz-adv-x="1511" d="M102 379q0 205 287 373q-152 147 -151 282q0 141 108.5 231.5t267.5 90.5q145 0 248 -90t103 -228q0 -152 -199 -301q125 -119 213 -217q145 160 192 252h289q-137 -201 -330 -416q104 -123 254 -133l37 -237q-174 0 -269 33.5t-204 132.5q-182 -170 -405 -170 q-190 0 -315.5 110.5t-125.5 286.5zM383 393q0 -74 54.5 -125t142.5 -51q98 0 211 109q-127 156 -265 282q-143 -96 -143 -215zM485 1042q0 -68 117 -168q133 72 133 166q0 49 -33.5 85t-87.5 36q-55 0 -92 -34t-37 -85z" />
<glyph unicode="'" horiz-adv-x="487" d="M98 1487h291l-47 -565h-199z" />
<glyph unicode="(" horiz-adv-x="788" d="M104 578q0 319 135.5 578t378.5 415l101 -211q-160 -135 -246 -336t-86 -438q0 -233 84 -443.5t246 -349.5l-101 -205q-246 160 -379 418.5t-133 571.5z" />
<glyph unicode=")" horiz-adv-x="788" d="M70 -201q160 135 245.5 336t85.5 438q0 233 -84 443.5t-245 349.5l100 205q246 -160 379 -418t133 -571q0 -319 -135 -578.5t-379 -415.5z" />
<glyph unicode="*" d="M121 938v231q104 -23 303 -41q-102 137 -191 238l199 117q4 -16 115 -285q102 248 110 285l199 -117q-57 -53 -190 -240q238 20 303 43v-231q-104 25 -301 45q141 -195 190 -242l-199 -110q-47 137 -112 282q-20 -51 -51 -122.5t-46.5 -109.5t-17.5 -50l-201 114 q18 18 46 52t72 91.5t73 94.5q-209 -14 -301 -45z" />
<glyph unicode="+" horiz-adv-x="1124" d="M100 422v223h334v346h254v-346h336v-223h-336v-344h-254v344h-334z" />
<glyph unicode="," horiz-adv-x="598" d="M98 -274q98 219 99 424q0 82 -17 163l297 52q14 -76 15 -138q0 -150 -57.5 -306.5t-141.5 -274.5z" />
<glyph unicode="-" horiz-adv-x="751" d="M76 379v278h600v-278h-600z" />
<glyph unicode="." horiz-adv-x="598" d="M109 176q0 82 59 140.5t139 58.5q82 0 140.5 -58.5t58.5 -140.5q0 -80 -59.5 -138t-141.5 -58q-80 0 -138 57t-58 139z" />
<glyph unicode="/" horiz-adv-x="747" d="M23 -76l395 1514h307l-422 -1514h-280z" />
<glyph unicode="0" horiz-adv-x="1187" d="M90 684q0 295 131 494.5t371 199.5q166 0 283.5 -103.5t169 -257t51.5 -339.5q0 -188 -53.5 -342t-170 -253t-280.5 -99q-125 0 -224.5 58t-157.5 158.5t-89 223.5t-31 260zM399 680q0 -219 49.5 -337t143.5 -118q195 0 194 455q0 219 -50 338t-144 119t-143.5 -119 t-49.5 -338z" />
<glyph unicode="1" horiz-adv-x="1077" d="M188 1174q229 88 471 204h136q-4 -39 -4 -260v-909q0 -164 4 -209h-312q4 86 4 211v833q-170 -70 -260 -110z" />
<glyph unicode="2" horiz-adv-x="1122" d="M143 0v207q213 154 362.5 343t149.5 341q0 100 -61.5 160.5t-159.5 60.5q-195 0 -276 -106v307q133 76 360 76q233 0 355 -120t122 -329q0 -176 -110.5 -341t-313.5 -339h228q123 0 233 10v-270h-889z" />
<glyph unicode="3" horiz-adv-x="1130" d="M170 35v262q113 -66 258 -66q106 0 173 49.5t67 135.5q0 74 -72 121t-166 47q-45 0 -98 -6v237q70 -4 90 -4q90 0 152.5 48t62.5 120t-56.5 118t-142.5 46q-141 0 -256 -70v258q129 59 314 60q201 0 323.5 -97.5t122.5 -261.5q0 -106 -67.5 -190t-188.5 -125 q137 -43 213 -127t76 -201q0 -184 -133 -296.5t-355 -112.5q-170 0 -317 55z" />
<glyph unicode="4" horiz-adv-x="1105" d="M35 346v133l727 899h94v-823q162 0 221 4v-215q-47 2 -221 2v-190q0 -78 6 -156l-293 2q4 37 4 154v190h-538zM309 555h264l2 346z" />
<glyph unicode="5" horiz-adv-x="1122" d="M119 45v281q139 -88 278 -88q113 0 182.5 52t69.5 142q0 88 -72.5 143.5t-199.5 55.5q-135 0 -207 -21q4 45 11 106.5t12 104.5l43 561q90 -4 159 -4h334q16 0 182 6v-264q-111 4 -170 4h-276l-23 -280q45 10 101 10q195 0 313.5 -112.5t118.5 -292.5q0 -219 -146.5 -344 t-361.5 -125q-184 -1 -348 65z" />
<glyph unicode="6" horiz-adv-x="1132" d="M74 457q0 266 143 501.5t373 419.5h350q-115 -72 -262.5 -236.5t-214.5 -310.5q80 57 186 58q180 0 299 -132t119 -317q0 -199 -145.5 -328.5t-356.5 -129.5q-201 0 -346 139t-145 336zM371 449q0 -90 58 -154t151 -64q94 0 148 61.5t54 147.5t-59 147.5t-147.5 61.5 t-146.5 -59t-58 -141z" />
<glyph unicode="7" horiz-adv-x="1110" d="M100 1380q47 -4 256 -4h500q119 0 213 4q-106 -229 -154 -344l-337 -819q-74 -170 -91 -217h-342q45 72 109 205l422 907h-336q-189 0 -236 -6z" />
<glyph unicode="8" horiz-adv-x="1136" d="M104 371q0 113 70 212t186 134q-213 80 -213 293q0 162 125 264t306 102q188 0 307 -103.5t119 -248.5q0 -92 -58.5 -175t-152.5 -128q119 -35 187.5 -129t68.5 -209q0 -176 -138.5 -286.5t-335 -110.5t-334 107.5t-137.5 277.5zM377 414q0 -76 58.5 -131.5t139.5 -55.5 q84 0 140.5 54.5t56.5 128.5q0 158 -223 204q-172 -48 -172 -200zM412 991q0 -63 55 -113.5t129 -60.5q145 45 145 170q0 70 -47 117t-118.5 47t-117.5 -47t-46 -113z" />
<glyph unicode="9" horiz-adv-x="1132" d="M66 938q0 199 145 329t356 130q201 0 346.5 -139t145.5 -336q0 -266 -143.5 -502t-372.5 -420h-350q115 72 262 236.5t215 310.5q-80 -57 -187 -58q-180 0 -298.5 132.5t-118.5 316.5zM350 938q0 -86 59.5 -147.5t147.5 -61.5t146.5 59.5t58.5 141.5q0 90 -58.5 153.5 t-150.5 63.5q-94 0 -148.5 -61.5t-54.5 -147.5z" />
<glyph unicode=":" horiz-adv-x="598" d="M109 176q0 82 59 140.5t139 58.5q82 0 140.5 -58.5t58.5 -140.5q0 -80 -59.5 -138t-141.5 -58q-80 0 -138 57t-58 139zM109 942q0 82 59 141.5t139 59.5q82 0 140.5 -58.5t58.5 -140.5t-59.5 -140.5t-141.5 -58.5q-80 0 -138 58.5t-58 138.5z" />
<glyph unicode=";" horiz-adv-x="604" d="M102 -274q100 223 101 424q0 88 -19 163l297 52q14 -59 15 -138q0 -150 -57.5 -306.5t-139.5 -274.5zM115 942q0 82 58 141.5t138 59.5q82 0 140.5 -58.5t58.5 -140.5t-58.5 -140.5t-140.5 -58.5q-80 0 -138 58.5t-58 138.5z" />
<glyph unicode="&#x3c;" horiz-adv-x="1144" d="M143 446v170l838 459v-268l-569 -260l569 -258v-271z" />
<glyph unicode="=" horiz-adv-x="1124" d="M100 174v223h924v-223h-924zM100 623v221h924v-221h-924z" />
<glyph unicode="&#x3e;" horiz-adv-x="1144" d="M164 18v271l567 260l-567 256v270l837 -426v-170z" />
<glyph unicode="?" horiz-adv-x="931" d="M139 1047v253q127 94 299 95q188 0 300 -100.5t112 -243.5q0 -152 -162 -334q-63 -74 -86.5 -123t-28.5 -119h-282q0 70 27.5 131.5t101.5 153.5q119 147 119 229q0 147 -174 148q-61 0 -124 -26t-102 -64zM240 176q0 82 59 140.5t139 58.5q82 0 140.5 -58.5t58.5 -140.5 q0 -80 -59.5 -138t-141.5 -58q-80 0 -138 57t-58 139z" />
<glyph unicode="@" horiz-adv-x="1824" d="M70 457q0 358 245.5 595.5t589.5 237.5q223 0 413.5 -84t310.5 -251t120 -382q0 -223 -119 -364t-323 -141q-233 0 -260 172q-90 -154 -252 -154q-121 0 -197 96.5t-76 229.5q0 174 104.5 312t270.5 138q63 0 115.5 -32.5t74.5 -94.5l11 117l219 -8l-82 -449 q-23 -156 88 -155q94 0 153.5 89t59.5 240q0 244 -165 388.5t-447 144.5q-264 0 -437.5 -183.5t-173.5 -449.5q0 -276 168 -452.5t422 -176.5q152 0 275 47l-7 -200q-203 -37 -268 -37q-348 0 -590.5 233.5t-242.5 573.5zM754 446q0 -72 33.5 -112.5t93.5 -40.5q82 0 149 86 l27 203q-16 35 -50 58.5t-69 23.5q-78 0 -131 -63t-53 -155z" />
<glyph unicode="A" horiz-adv-x="1439" d="M20 0q47 84 179 373l463 1024h92l485 -1045q98 -209 180 -352h-354l-111 272h-520l-110 -272h-304zM524 498h338l-172 422z" />
<glyph unicode="B" horiz-adv-x="1245" d="M166 0q8 106 8 360v607q0 342 -6 409h448q182 0 316.5 -87t134.5 -251q0 -92 -51 -165.5t-135 -106.5q115 -35 188.5 -127t73.5 -217q0 -207 -151.5 -314.5t-366.5 -107.5h-459zM483 209h125q104 0 162.5 54.5t58.5 154.5q0 92 -57 149.5t-154 57.5h-135v-416zM483 825 h111q76 0 125 48t49 128q0 76 -48 125.5t-132 49.5h-105v-351z" />
<glyph unicode="C" horiz-adv-x="1298" d="M96 686q0 307 210 511t517 204q170 0 338 -51v-312q-117 94 -313 95q-190 0 -315 -129.5t-125 -315.5q0 -188 128 -316t312 -128q170 0 326 80v-301q-145 -45 -355 -46q-313 0 -518 202t-205 507z" />
<glyph unicode="D" horiz-adv-x="1452" d="M166 0q8 109 8 367v665q0 248 -8 344h504q291 0 488.5 -192.5t197.5 -489.5q0 -303 -205 -498.5t-483 -195.5h-502zM483 254h148q184 0 298.5 122t114.5 312.5t-117.5 312t-297.5 121.5h-146v-868z" />
<glyph unicode="E" horiz-adv-x="1101" d="M166 0q6 229 6 350v676q0 264 -6 350h487q213 0 330 6l-47 -264q-72 6 -330 6h-125v-290h127q231 0 316 4v-260q-84 6 -316 6h-127v-330h174q236 0 316 4v-262q-80 4 -314 4h-491z" />
<glyph unicode="F" horiz-adv-x="1062" d="M166 0q6 90 6 358v658q0 272 -6 360h477q254 0 342 6l-49 -264q-61 6 -330 6h-125v-338h113q223 0 305 5v-263q-61 4 -305 4h-113v-176q0 -262 6 -356h-321z" />
<glyph unicode="G" horiz-adv-x="1400" d="M96 688q0 311 211 512t549 201q188 0 336 -49v-293q-162 78 -324 78q-219 0 -338.5 -131.5t-119.5 -317.5t122.5 -318t305.5 -132q66 0 108 18v170q0 180 -6 262h305q-6 -111 -6 -321v-322q-182 -70 -397 -70q-324 0 -535 198t-211 515z" />
<glyph unicode="H" horiz-adv-x="1527" d="M166 0q6 78 6 297v723q0 279 -6 356h319q-4 -94 -4 -397v-135h566v184q0 227 -9 348h324q-8 -186 -8 -356v-744q0 -160 8 -276h-324q8 90 9 291v303h-566v-305q0 -211 4 -289h-319z" />
<glyph unicode="I" horiz-adv-x="653" d="M166 0q6 86 6 375v612q0 301 -6 389h321q-6 -72 -6 -389v-612q0 -287 6 -375h-321z" />
<glyph unicode="J" horiz-adv-x="874" d="M70 4v277q78 -41 176 -41q162 0 162 227v553q0 270 -7 356h320q-4 -115 -4 -356v-582q0 -207 -117 -332.5t-330 -125.5h-6q-76 0 -194 24z" />
<glyph unicode="K" horiz-adv-x="1394" d="M166 0q6 86 6 350v676q0 209 -6 350h321q-4 -92 -4 -350v-291l295 402q111 156 162 239h342q-23 -29 -44 -58.5t-50 -69.5t-53 -72l-347 -455l379 -471q12 -14 47 -57t76 -92.5t86 -100.5h-413q-31 49 -132 184l-348 445v-279q0 -252 4 -350h-321z" />
<glyph unicode="L" horiz-adv-x="1071" d="M166 0q6 152 6 367v643q0 276 -6 366h321q-6 -117 -6 -284v-832h203q201 0 332 4v-270q-84 6 -336 6h-514z" />
<glyph unicode="M" horiz-adv-x="1728" d="M94 0q2 45 13.5 170t15.5 178l72 1032h241l441 -782l440 782h235l60 -1054q8 -178 24 -326h-305q-2 119 -14 299l-31 520l-381 -657h-63l-385 657l-33 -516q-2 -47 -12 -303h-318z" />
<glyph unicode="N" horiz-adv-x="1513" d="M166 0q6 80 6 291v727q0 244 -6 381h96l782 -809v432q0 233 -6 354h308q-8 -174 -9 -350v-733q0 -172 6 -309h-94l-782 817v-516q0 -168 6 -285h-307z" />
<glyph unicode="O" horiz-adv-x="1656" d="M96 692q0 303 209 506t520 203q313 0 524.5 -206t211.5 -511t-210 -507t-520 -202q-315 0 -525 205t-210 512zM412 688q0 -199 117.5 -329t301.5 -130q180 0 297 130t117 327t-118.5 329t-299 132t-298 -130t-117.5 -329z" />
<glyph unicode="P" horiz-adv-x="1200" d="M166 0q8 104 8 358v682q0 244 -8 336h434q236 0 377 -122.5t141 -333.5q0 -201 -135 -321t-383 -120h-119v-127q0 -248 8 -352h-323zM481 711h94q102 0 166 60.5t64 154.5q0 92 -62.5 153.5t-167.5 61.5h-94v-430z" />
<glyph unicode="Q" horiz-adv-x="1656" d="M96 692q0 303 209 506t520 203q313 0 524.5 -206t211.5 -511q0 -193 -88.5 -349.5t-241.5 -250.5q201 -180 434 -180q65 0 135 16l39 -219q-117 -35 -235 -35q-201 0 -359 79t-311 237q-49 -6 -103 -7q-315 0 -525 205t-210 512zM412 688q0 -199 117.5 -329t301.5 -130 q180 0 297 130t117 327t-118.5 329t-299 132t-298 -130t-117.5 -329z" />
<glyph unicode="R" horiz-adv-x="1333" d="M166 0q8 104 8 362v666q0 256 -8 348h452q221 0 360.5 -109.5t139.5 -314.5q0 -258 -237 -348l190 -305q47 -72 223 -299h-376l-314 522h-123v-162q0 -244 6 -360h-321zM481 741h113q88 0 150.5 49.5t62.5 145.5q0 94 -58.5 145.5t-146.5 51.5h-121v-392z" />
<glyph unicode="S" horiz-adv-x="1097" d="M96 55l68 256q123 -100 285 -100q92 0 147 38t55 105q0 61 -50 110.5t-144 106.5q-66 39 -109 71t-93 84t-75.5 119.5t-25.5 147.5q0 184 126 297t338 113q170 0 300 -62v-249q-123 75 -265 75h-4q-82 0 -129 -35.5t-47 -93.5q0 -39 31 -76.5t64.5 -62.5t101.5 -65 q150 -92 231.5 -197t81.5 -248q0 -182 -139 -301t-369 -119q-215 0 -379 86z" />
<glyph unicode="T" horiz-adv-x="1288" d="M59 1112v268q90 -4 347 -4h481q195 0 346 4l-8 -268q-129 8 -342 8h-82q-2 -57 -2 -258v-506q0 -205 8 -356h-326q6 152 6 356v506q0 184 -4 258h-84q-211 0 -340 -8z" />
<glyph unicode="U" horiz-adv-x="1447" d="M154 1376h321q-6 -92 -6 -379v-462q0 -141 67.5 -216t188.5 -75q123 0 190.5 75.5t67.5 217.5v460q0 276 -6 379h319q-4 -92 -4 -381v-454q0 -264 -152.5 -414t-412.5 -150q-266 0 -417.5 154t-151.5 410v454q0 301 -4 381z" />
<glyph unicode="V" horiz-adv-x="1409" d="M16 1376h349l352 -846l354 846h322q-16 -29 -142 -278l-516 -1125h-61l-510 1114q-103 217 -148 289z" />
<glyph unicode="W" horiz-adv-x="2029" d="M16 1376h312l413 -893l150 353l-266 540h264l133 -284l127 284h274l-274 -549l143 -344l414 893h307q-25 -55 -135 -293l-500 -1095h-63l-297 602l-301 -602h-66l-506 1091q-33 70 -73 166t-56 131z" />
<glyph unicode="X" horiz-adv-x="1298" d="M18 0q92 119 215 305l248 387l-241 381q-123 195 -203 303h369q41 -80 100 -178l147 -250l156 260q23 39 57.5 100.5t36.5 67.5h342q-72 -90 -203 -289l-237 -370l248 -385q137 -213 227 -332h-371q-18 39 -100 170l-174 287l-191 -314l-82 -143h-344z" />
<glyph unicode="Y" horiz-adv-x="1341" d="M16 1376h369q14 -35 86 -164l211 -352l207 346q41 68 94 170h342q-55 -78 -184 -278l-316 -500v-291q0 -221 6 -307h-319q4 225 4 309v287l-330 526q-133 205 -170 254z" />
<glyph unicode="Z" horiz-adv-x="1200" d="M51 0q20 37 160 293l457 827h-232q-264 0 -327 -4l-7 264q176 -4 344 -4h682l-620 -1120h287q203 0 319 6v-266q-156 4 -319 4h-744z" />
<glyph unicode="[" horiz-adv-x="815" d="M158 -389q4 51 4 219v1509q0 166 -4 220h415q113 0 158 2v-224q-43 4 -156 4h-165v-1513h168q111 0 153 4v-225q-37 4 -151 4h-422z" />
<glyph unicode="\" horiz-adv-x="739" d="M12 1446h305l408 -1532h-295z" />
<glyph unicode="]" horiz-adv-x="815" d="M84 -168q43 -4 154 -4h165v1513h-163q-113 0 -156 -4v224q45 -2 158 -2h415q-4 -53 -4 -220v-1509q0 -168 4 -219h-421q-115 0 -152 -4v225z" />
<glyph unicode="^" horiz-adv-x="1091" d="M49 815l434 651h125l434 -651h-284l-221 371l-211 -371h-277z" />
<glyph unicode="_" horiz-adv-x="946" d="M324 -131h299v-111h-299v111z" />
<glyph unicode="a" d="M80 279q0 139 96 222t246 95q104 12 219 12v29q0 66 -53 103.5t-139 37.5q-123 0 -236 -57l-88 192q133 88 362 88q221 0 333 -108.5t112 -312.5v-252q0 -205 41 -328h-291l-14 104q-98 -127 -273 -127q-135 0 -225 84.5t-90 217.5zM373 285q0 -49 30.5 -78t79.5 -29 q96 0 162 80v158l-125 -6q-68 -2 -107.5 -34t-39.5 -91z" />
<glyph unicode="b" horiz-adv-x="1261" d="M41 1292l63 174h342q-6 -111 -6 -194v-359q115 88 279 88q205 0 333 -142t128 -355q0 -219 -132.5 -367.5t-340.5 -148.5q-182 0 -306 114l-172 -102h-82v1292h-106zM440 332q80 -96 209 -96q111 0 174.5 72.5t63.5 185t-63.5 186.5t-170.5 74q-135 0 -213 -86v-336z" />
<glyph unicode="c" horiz-adv-x="991" d="M82 489q0 223 159.5 367.5t389.5 144.5q100 0 229 -38v-279q-90 57 -198 57q-137 0 -212 -73.5t-75 -182.5q0 -106 74.5 -174.5t212.5 -68.5q98 0 204 53v-270q-96 -39 -225 -39q-244 0 -401.5 142t-157.5 361z" />
<glyph unicode="d" horiz-adv-x="1271" d="M82 506q0 217 129 356t338 139q158 0 274 -90v363h-110l65 174h342q-6 -68 -6 -199v-1030q0 -125 6 -219h-202l-87 94q-113 -106 -282 -106q-209 0 -338 149.5t-129 368.5zM373 493.5q0 -112.5 61.5 -186.5t171.5 -74q137 0 217 97v332q-84 90 -215 90q-109 0 -172 -73 t-63 -185.5z" />
<glyph unicode="e" d="M82 494q0 213 128 359t345 146q225 0 341 -137t116 -319q0 -63 -13 -113h-626q16 -211 258 -211q156 0 321 76v-223q-150 -88 -340 -88q-248 0 -389 138.5t-141 371.5zM365 590h360q0 82 -43 135t-129 53q-88 0 -135 -55t-53 -133z" />
<glyph unicode="f" horiz-adv-x="815" d="M68 750v231h168v78q0 205 101 309.5t290 104.5q125 0 239 -33l-45 -226q-53 27 -127 27q-82 0 -120.5 -46t-38.5 -124v-90h245l-47 -231h-198v-545q0 -102 4 -205h-308q4 184 5 205v545h-168z" />
<glyph unicode="g" horiz-adv-x="1224" d="M82 489q0 215 128 363.5t325 148.5q170 0 284 -110v90h256q-6 -147 -6 -150v-765q0 -279 -146.5 -398t-416.5 -119q-213 0 -365 50l78 215q150 -33 297.5 -33t218 60.5t70.5 199.5v41q-111 -94 -260 -94q-205 0 -334 142t-129 359zM373 494q0 -113 60.5 -187t162.5 -74 q127 0 207 91v333q-80 96 -201 97q-106 0 -167.5 -72.5t-61.5 -187.5z" />
<glyph unicode="h" horiz-adv-x="1216" d="M41 1284l63 174h342q-8 -72 -8 -205v-381q109 125 291 125q172 0 264 -114.5t92 -325.5v-317q0 -168 9 -240h-312q4 43 4 242v344q0 78 -45 122t-116 44q-117 0 -187 -127v-398q0 -147 6 -227h-311q6 55 6 227v1057h-98z" />
<glyph unicode="i" horiz-adv-x="618" d="M152 981h317q-8 -74 -8 -205v-573q0 -139 8 -203h-315q8 72 8 203v567q0 143 -10 211zM158 1266q0 68 47 114.5t114.5 46.5t115.5 -47t48 -114q0 -70 -48 -117t-115.5 -47t-114.5 47t-47 117z" />
<glyph unicode="j" horiz-adv-x="604" d="M-119 -203h115q162 0 162 264v705q0 154 -8 215h319q-6 -78 -6 -209v-727q0 -135 -36 -241.5t-124 -179.5t-217 -73h-205v246zM133 1266q0 68 47 114.5t114.5 46.5t116 -47t48.5 -114q0 -70 -48.5 -117t-116 -47t-114.5 47t-47 117z" />
<glyph unicode="k" horiz-adv-x="1196" d="M41 1284l61 174h338q-6 -68 -6 -205v-678l379 406h334q-61 -57 -180 -176l-260 -273l335 -387q66 -76 134 -145h-383l-359 414v-211q0 -141 6 -203h-303q4 45 4 207v1077h-100z" />
<glyph unicode="l" horiz-adv-x="591" d="M41 1284l63 174h336q-6 -39 -6 -196v-1057q0 -164 6 -205h-303q6 61 6 205v1079h-102z" />
<glyph unicode="m" horiz-adv-x="1771" d="M45 803l64 178h331l4 -129q102 145 287 145q197 0 268 -151q105 151 293 151h2q160 0 254 -107.5t94 -305.5v-383q0 -115 7 -201h-310q4 88 4 213v373q0 168 -131 168q-96 0 -168 -129v-424q0 -131 5 -201h-308q4 72 4 213v371q0 170 -133 170q-96 0 -170 -129v-410 q0 -160 4 -215h-303q2 74 2 203v600h-100z" />
<glyph unicode="n" horiz-adv-x="1202" d="M45 803l64 178h323l4 -119q98 135 295 135q344 0 344 -446v-311q0 -182 4 -240h-301q4 66 4 242v344q0 80 -45 124t-116 44q-111 0 -185 -129v-383q0 -182 4 -242h-301q6 98 6 242v561h-100z" />
<glyph unicode="o" horiz-adv-x="1177" d="M82 489q0 215 149.5 362.5t356.5 147.5q213 0 360.5 -149.5t147.5 -360.5q0 -215 -149.5 -359t-358.5 -144q-213 0 -359.5 147t-146.5 356zM369 489q0 -102 62.5 -176.5t156.5 -74.5t157.5 73.5t63.5 177.5q0 106 -63.5 179t-157.5 73t-156.5 -77t-62.5 -175z" />
<glyph unicode="p" horiz-adv-x="1263" d="M45 807l64 174h337l-4 -94q103 114 280 114h3q201 0 329 -142t128 -355q0 -219 -132 -367.5t-339 -148.5q-147 0 -267 82v-494l-297 -43q6 96 7 207v1067h-109zM444 332q80 -96 209 -96q113 0 175.5 72.5t62.5 183.5q0 115 -64.5 188.5t-171.5 73.5q-131 0 -211 -95v-327 z" />
<glyph unicode="q" horiz-adv-x="1271" d="M82 504q0 217 128 357t337 140q150 0 276 -90v70h297q-6 -96 -6 -260v-930q0 -166 8 -240h-303q6 98 6 250v287q-119 -100 -278 -100q-207 0 -336 148.5t-129 367.5zM373 492q0 -113 61.5 -186t169.5 -73q139 0 219 97v332q-84 90 -217 90q-106 0 -169.5 -72.5 t-63.5 -187.5z" />
<glyph unicode="r" horiz-adv-x="837" d="M45 805l64 176h282l25 -190q61 96 139 153t156 57q59 0 112 -30l-57 -277q-53 18 -107 19q-57 0 -122.5 -41t-92.5 -97v-368q0 -84 9 -207h-314q6 106 6 209v596h-100z" />
<glyph unicode="s" horiz-adv-x="897" d="M86 41l53 235q114 -83 243 -83h3q123 0 123 73q0 8 -2 16.5t-8 15.5t-11.5 13t-16.5 14.5t-19.5 13.5t-23.5 13t-25.5 13.5t-30 15.5t-31.5 16q-102 53 -162.5 122t-60.5 181q0 143 99 221t278 78q119 0 270 -47v-233q-127 74 -240 74q-110 0 -110 -69q0 -17 8 -30.5 t29.5 -29t37 -23.5t51 -26.5t50.5 -26.5q217 -115 217 -301q0 -143 -105.5 -227.5t-300.5 -84.5q-202 0 -315 66z" />
<glyph unicode="t" horiz-adv-x="849" d="M63 750v231h142v88q0 59 -4 141l305 37q-4 -102 -4 -184v-82h264l-39 -231h-225v-326q0 -190 141 -191q43 0 84 21l43 -213q-96 -57 -217 -57q-162 0 -255 96t-93 278v392h-142z" />
<glyph unicode="u" horiz-adv-x="1230" d="M45 803l64 178h342q-8 -82 -9 -213v-332q0 -211 160 -211q53 0 96 36t66 97v404q0 156 -4 219h309q-6 -61 -6 -217v-551q0 -129 18 -213h-260l-30 137q-91 -155 -281 -155h-2q-168 0 -266.5 108.5t-98.5 310.5v402h-98z" />
<glyph unicode="v" horiz-adv-x="1081" d="M14 981h353q16 -45 51 -139l145 -377l148 395q31 76 41 121h313q-76 -141 -109 -211l-366 -793h-103l-364 793q-43 96 -109 211z" />
<glyph unicode="w" horiz-adv-x="1533" d="M14 981h334q12 -61 53 -168l129 -360l187 528h141l191 -520l114 344q31 84 58 176h301q-74 -152 -101 -227l-272 -770h-131l-246 581l-227 -581h-137l-293 766q-23 59 -58 135t-43 96z" />
<glyph unicode="x" horiz-adv-x="1058" d="M18 0q51 66 158 225l180 264l-188 306q-57 92 -133 186h338l170 -279l182 279h305q-35 -43 -133 -186l-192 -295l180 -289q55 -90 139 -211h-324l-180 285l-184 -285h-318z" />
<glyph unicode="y" horiz-adv-x="1150" d="M14 981h355q20 -74 55 -154l178 -436l156 426q25 74 47 164h332q-31 -59 -97 -217l-352 -823q-80 -193 -172 -273t-217 -80h-184l6 242q133 0 181 18.5t89 94.5l55 116l-321 695q-43 98 -111 227z" />
<glyph unicode="z" horiz-adv-x="1005" d="M47 0l453 717h-234q-119 0 -166 -4l-2 272q49 -4 191 -4h659l-422 -719h242q78 0 172 4v-270q-43 4 -154 4h-739z" />
<glyph unicode="{" horiz-adv-x="835" d="M57 473v225q197 6 197 205q0 33 -4 135.5t-4 130.5q0 387 520 394l4 -220q-260 4 -260 -219q0 -35 3 -128t3 -117q0 -236 -190 -293q190 -57 190 -291q0 -41 -3 -131t-3 -117q0 -219 260 -219l-4 -217q-258 4 -389 98t-131 295q0 43 4 142.5t4 125.5q0 195 -197 201z" />
<glyph unicode="|" horiz-adv-x="530" d="M150 -440v1999h233v-1999h-233z" />
<glyph unicode="}" horiz-adv-x="835" d="M66 -172q260 0 260 219q0 35 -3.5 129t-3.5 119q0 233 191 291q-190 57 -191 293q0 39 3.5 129t3.5 116q0 223 -260 219l4 220q520 -6 520 -396q0 -43 -4 -141t-4 -127q-1 -195 196 -201v-225q-197 -6 -196 -205q0 -33 4 -135t4 -131q0 -199 -131 -293t-389 -98z" />
<glyph unicode="~" horiz-adv-x="1009" d="M158 440q4 102 64.5 180t160.5 78q61 0 137 -43t98 -43q59 0 64 74h172q-4 -102 -59.5 -180t-153.5 -78q-70 0 -145.5 43t-94.5 43q-57 0 -61 -74h-182z" />
<glyph unicode="&#xa1;" horiz-adv-x="667" d="M137 823q0 80 59.5 138.5t141.5 60.5q80 0 138.5 -58.5t58.5 -138.5q0 -82 -59.5 -141t-139.5 -59q-82 0 -140.5 58t-58.5 140zM184 -377q4 49 4 230v405q0 180 -4 231h314q-6 -68 -6 -231v-405q0 -173 6 -230h-314z" />
<glyph unicode="&#xa2;" horiz-adv-x="1124" d="M178 526q0 195 108.5 323t286.5 161v194h185v-188q76 -4 133 -25v-266q-70 39 -168 41q-104 0 -175 -63.5t-71 -174.5q0 -106 68.5 -167.5t175 -61.5t176.5 33l6 -258q-61 -23 -147 -25v-180h-178v186q-186 33 -293 157t-107 314z" />
<glyph unicode="&#xa3;" horiz-adv-x="1124" d="M57 0v244q133 10 192.5 89t65.5 271h-180v189h193q20 305 155 444t379 139q76 0 209 -37l-35 -237q-88 35 -155 35q-111 0 -177.5 -69t-76.5 -200l-4 -75h292l-32 -189h-275q-14 -266 -153 -366q47 2 207 2h157q166 0 211 4v-248q-57 4 -209 4h-764z" />
<glyph unicode="&#xa4;" horiz-adv-x="1124" d="M57 999l142 142l149 -150q96 57 215 58q94 0 209 -58l139 139l142 -143l-133 -135q63 -115 63 -215q0 -109 -65 -207l145 -145l-141 -142l-152 148q-102 -57 -207 -58q-121 0 -211 56l-139 -139l-145 141l139 139q-66 92 -66 207q0 111 66 215zM387 641q0 -76 51 -128 t125 -52q72 0 123 53t51 127q0 72 -51 125t-123 53q-74 0 -125 -52t-51 -126z" />
<glyph unicode="&#xa5;" horiz-adv-x="1124" d="M23 1356h337q6 -16 66 -137l141 -285l146 278q12 25 39.5 75t35.5 69h312q-6 -10 -51 -87t-78 -132l-285 -457h275v-152h-252v-102h252v-135h-252v-86q0 -88 6 -205h-320q0 29 3 98.5t3 104.5v88h-245v135h245v102h-245v152h282l-319 514q-23 37 -54.5 91t-41.5 71z" />
<glyph unicode="&#xa6;" horiz-adv-x="530" d="M150 297h233v-737h-233v737zM150 823v736h233v-736h-233z" />
<glyph unicode="&#xa7;" horiz-adv-x="1153" d="M121 627q0 92 52 162.5t146 111.5q-49 37 -83.5 100.5t-34.5 131.5q0 152 102.5 237.5t302.5 85.5q180 0 328 -55v-227q-119 63 -281 63q-70 0 -107.5 -28.5t-37.5 -80.5q0 -53 50 -91t142 -74q70 -27 119 -53.5t104.5 -68.5t85 -102.5t29.5 -134.5q0 -166 -164 -264 q111 -80 111 -231q0 -166 -117.5 -254t-335.5 -88q-207 0 -364 59l43 235q137 -78 303 -77q182 0 182 116q0 92 -213 170q-61 23 -102 41.5t-95.5 50t-86 66.5t-55 86.5t-23.5 112.5zM383 686q0 -98 178 -174q104 -41 156 -68q61 51 61 119q0 39 -17.5 70t-58 55.5 t-62.5 35.5t-73 32q-76 29 -110 49q-74 -39 -74 -119z" />
<glyph unicode="&#xa9;" horiz-adv-x="1572" d="M96 678q0 287 202 489.5t486 202.5q287 0 489 -202.5t202 -489.5q0 -289 -201 -490.5t-490 -201.5q-287 0 -487.5 202.5t-200.5 489.5zM248 680q0 -229 156.5 -389t382 -160t383 160t157.5 389q0 227 -157.5 386t-383 159t-382 -159t-156.5 -386zM455 678 q0 160 113.5 270.5t273.5 110.5q63 0 157 -23v-205q-59 31 -139 31q-82 0 -135 -53t-53 -129q0 -80 51 -131t127 -51q88 0 154 34l6 -208q-86 -25 -176 -25q-160 0 -269.5 110.5t-109.5 268.5z" />
<glyph unicode="&#xaa;" horiz-adv-x="632" d="M47 1102q0 82 56.5 126t150.5 50l123 8v14q0 41 -36 63.5t-87 22.5q-80 0 -137 -28l-35 121q92 37 192 37q291 0 291 -256v-136q0 -115 21 -180h-176l-17 57q-66 -76 -160 -75q-82 0 -134 49t-52 127zM229 1108q0 -27 17.5 -45.5t46.5 -18.5q53 0 86 37v95l-68 -5 q-82 -4 -82 -63z" />
<glyph unicode="&#xab;" horiz-adv-x="1388" d="M88 475v45l561 441v-273l-243 -190l245 -187v-274zM717 475v45l561 441v-273l-246 -190l248 -187v-274z" />
<glyph unicode="&#xac;" horiz-adv-x="1124" d="M57 520v246h959v-594h-305v348h-654z" />
<glyph unicode="&#xad;" horiz-adv-x="751" d="M76 379v278h600v-278h-600z" />
<glyph unicode="&#xae;" horiz-adv-x="956" d="M129 1140.5q0 145.5 101.5 248t247 102.5t247.5 -102.5t102 -248t-102 -246.5t-247.5 -101t-247 101t-101.5 246.5zM211 1140.5q0 -114.5 77 -193.5t189.5 -79t190 80t77.5 193q0 115 -77.5 194.5t-190 79.5t-189.5 -80t-77 -194.5zM344 971q2 23 2 78v192q0 61 -2 82 h113q68 0 103.5 -28.5t35.5 -75.5q0 -86 -78 -103l111 -145h-97l-73 135h-33v-135h-82zM426 1159h35q65 0 65 53q0 51 -63 52h-37v-105z" />
<glyph unicode="&#xb0;" horiz-adv-x="698" d="M57 1098q0 121 85 206t206 85t206 -84t85 -205t-86 -207t-207 -86q-123 0 -206 85t-83 206zM213 1099.5q0 -57.5 39 -96t94 -38.5t93 39.5t38 97.5q0 53 -39 93t-90 40q-55 0 -95 -39t-40 -96.5z" />
<glyph unicode="&#xb1;" horiz-adv-x="1124" d="M100 0v244h924v-244h-924zM100 696v222h334v346h254v-346h336v-222h-336v-346h-254v346h-334z" />
<glyph unicode="&#xb2;" horiz-adv-x="753" d="M98 877v124q147 125 205 203q86 100 86 166q0 51 -31.5 82t-83.5 31q-84 0 -155 -47l-6 194q98 45 215 45q137 0 213.5 -71.5t76.5 -194.5q0 -102 -108 -221l-127 -127h133q49 0 131 4v-188h-549z" />
<glyph unicode="&#xb3;" horiz-adv-x="753" d="M115 905l6 176q72 -43 178 -43q113 0 113 86q0 35 -31 57.5t-88 22.5q-18 0 -47 -4v156l41 -2q102 0 102 76q0 70 -94 69q-86 0 -162 -43l-6 184q88 35 197 35q133 0 210.5 -54t77.5 -151q0 -66 -41 -115.5t-116 -70.5q74 -14 128 -65.5t54 -124.5q0 -104 -87 -166 t-218 -62t-217 39z" />
<glyph unicode="&#xb5;" horiz-adv-x="1257" d="M45 803l64 176h340q-6 -102 -7 -207v-287q0 -131 48.5 -195.5t132.5 -64.5q59 0 106 39t64 101v397q0 156 -5 217h310q-6 -59 -6 -215v-551q0 -121 16 -213h-258l-31 141q-84 -156 -227 -155q-111 0 -174 108q18 -92 18 -192v-226q0 -106 6 -198h-305q6 80 6 203v1122 h-98z" />
<glyph unicode="&#xb6;" horiz-adv-x="1374" d="M88 911q0 209 149.5 337t368.5 128h627v-1569h-172v1414h-170v-1061q0 -225 6 -355h-305q6 92 6 281v365q-240 4 -375 125.5t-135 334.5z" />
<glyph unicode="&#xb7;" horiz-adv-x="612" d="M109 526q0 82 58 141.5t138 59.5q82 0 140.5 -58.5t58.5 -140.5t-58.5 -140t-140.5 -58q-80 0 -138 58t-58 138z" />
<glyph unicode="&#xb9;" horiz-adv-x="663" d="M74 1534q123 45 319 137h103q0 -6 -1 -62.5t-1 -97.5v-487q0 -113 2 -150h-222q0 16 1 75t1 89v406l-176 -70z" />
<glyph unicode="&#xba;" horiz-adv-x="720" d="M49 1212q0 127 89 215.5t222.5 88.5t222.5 -88.5t89 -215.5t-89 -215t-222.5 -88t-222.5 89t-89 214zM229 1212q0 -57 38 -98t93.5 -41t92 40t36.5 99.5t-37.5 99.5t-91.5 40q-55 0 -93 -43.5t-38 -96.5z" />
<glyph unicode="&#xbb;" horiz-adv-x="1388" d="M109 686v275l563 -439v-45l-561 -440v272l245 191zM737 686v275l563 -439v-45l-561 -440v272l244 191z" />
<glyph unicode="&#xbc;" horiz-adv-x="1693" d="M74 1239q123 45 319 137h103q0 -6 -1 -62.5t-1 -96.5v-488q0 -113 2 -149h-222q0 16 1 74.5t1 88.5v406l-176 -70zM215 0l989 1370h238l-989 -1370h-238zM899 168v104l457 516h135v-477q86 0 123 2v-145h-123v-78q0 -49 2 -90h-223q2 25 2 84v84h-373zM1069 313h203 l2 240z" />
<glyph unicode="&#xbd;" horiz-adv-x="1822" d="M74 1239q123 45 319 137h103q0 -6 -1 -62.5t-1 -96.5v-488q0 -113 2 -149h-222q0 16 1 74.5t1 88.5v406l-176 -70zM240 0l987 1370h237l-989 -1370h-235zM1167 0v125q156 137 205 203q86 104 86 168q0 49 -31.5 80.5t-85.5 31.5q-82 0 -153 -49l-6 195q98 45 215 45 q137 0 214 -72t77 -195q0 -98 -111 -221q-20 -25 -66.5 -69.5t-58.5 -57.5h133q66 0 131 6v-190h-549z" />
<glyph unicode="&#xbe;" horiz-adv-x="1730" d="M115 612l6 176q72 -43 178 -43q113 0 113 86q0 35 -31 57.5t-88 22.5q-18 0 -47 -4v156l41 -2q102 0 102 76q0 70 -94 69q-86 0 -162 -43l-6 185q88 35 197 34q133 0 210.5 -54t77.5 -150q0 -66 -41 -116t-116 -71q74 -14 128 -65.5t54 -124.5q0 -104 -87 -166t-218 -62 t-217 39zM270 0l987 1370h238l-989 -1370h-236zM938 168v104l457 516h133v-477q86 0 123 2v-145h-123v-78q0 -49 2 -90h-221v88v80h-371zM1106 313h203l2 240z" />
<glyph unicode="&#xbf;" horiz-adv-x="931" d="M139 -57q0 152 162 333q66 74 89.5 123.5t25.5 118.5h282q0 -72 -27.5 -134t-101.5 -153q-119 -147 -118 -229q0 -147 176 -147q61 0 122.5 26.5t100.5 65.5v-254q-53 -41 -135 -67.5t-162 -26.5q-190 0 -302 99t-112 245zM352 815q0 82 59.5 140.5t141.5 58.5 q80 0 138.5 -58.5t58.5 -138.5q0 -82 -59.5 -141.5t-139.5 -59.5q-82 0 -140.5 58.5t-58.5 140.5z" />
<glyph unicode="&#xc0;" horiz-adv-x="1439" d="M20 0q47 84 179 373l463 1024h92l485 -1045q98 -209 180 -352h-354l-111 272h-520l-110 -272h-304zM371 1817h297l219 -332h-269zM524 498h338l-172 422z" />
<glyph unicode="&#xc1;" horiz-adv-x="1439" d="M20 0q47 84 179 373l463 1024h92l485 -1045q98 -209 180 -352h-354l-111 272h-520l-110 -272h-304zM524 498h338l-172 422zM524 1485l219 332h297l-247 -332h-269z" />
<glyph unicode="&#xc2;" horiz-adv-x="1439" d="M20 0q47 84 179 373l463 1024h92l485 -1045q98 -209 180 -352h-354l-111 272h-520l-110 -272h-304zM371 1468l293 340h77l285 -340h-223l-101 140l-100 -140h-231zM524 498h338l-172 422z" />
<glyph unicode="&#xc3;" horiz-adv-x="1439" d="M20 0q47 84 179 373l463 1024h92l485 -1045q98 -209 180 -352h-354l-111 272h-520l-110 -272h-304zM356 1493q4 102 65.5 180t160.5 78q61 0 138 -43t99 -43q57 0 62 74h172q-4 -104 -59.5 -182t-153.5 -78q-70 0 -144.5 43t-93.5 43q-57 0 -61 -72h-185zM524 498h338 l-172 422z" />
<glyph unicode="&#xc4;" horiz-adv-x="1439" d="M20 0q47 84 179 373l463 1024h92l485 -1045q98 -209 180 -352h-354l-111 272h-520l-110 -272h-304zM326 1649q0 68 47 114.5t114.5 46.5t115.5 -47t48 -114q0 -70 -48 -117t-115.5 -47t-114.5 47t-47 117zM524 498h338l-172 422zM764 1649q0 68 47 114.5t114.5 46.5 t116 -47t48.5 -114q0 -70 -48.5 -117t-116 -47t-114.5 47t-47 117z" />
<glyph unicode="&#xc5;" horiz-adv-x="1439" d="M20 0q47 84 179 373l463 1024h92l485 -1045q98 -209 180 -352h-354l-111 272h-520l-110 -272h-304zM485 1645q0 86 63.5 143t156.5 57q94 0 157.5 -58t63.5 -142t-63.5 -142.5t-157.5 -58.5q-92 0 -156 58.5t-64 142.5zM524 498h338l-172 422zM631 1642q0 -31 20.5 -54 t53 -23t54 21.5t21.5 55.5q0 33 -21.5 54.5t-53.5 21.5q-31 0 -52.5 -21.5t-21.5 -54.5z" />
<glyph unicode="&#xc6;" horiz-adv-x="1787" d="M20 0q90 156 205 385l488 991h497q207 0 326 6l-6 -264q-68 6 -320 6h-174l58 -305h192q219 0 301 6v-260q-80 4 -295 4h-149l55 -315h180q221 0 299 6v-266q-100 6 -227 6h-457l-51 274h-483l-129 -274h-310zM555 500h342l-100 544z" />
<glyph unicode="&#xc7;" horiz-adv-x="1298" d="M96 686q0 307 210 511t517 204q170 0 338 -51v-312q-117 94 -313 95q-190 0 -315 -129.5t-125 -315.5q0 -188 128 -316t312 -128q170 0 326 80v-301q-141 -45 -345 -46l-28 -57q172 -35 172 -201q0 -98 -69.5 -157.5t-198.5 -59.5q-90 0 -158 27l4 141q68 -23 117 -22 q109 0 108 69q0 72 -121 72q-43 0 -69 -8l102 207q-264 41 -428 234.5t-164 463.5z" />
<glyph unicode="&#xc8;" horiz-adv-x="1101" d="M166 0q6 229 6 350v676q0 264 -6 350h487q213 0 330 6l-47 -264q-72 6 -330 6h-125v-290h127q231 0 316 4v-260q-84 6 -316 6h-127v-330h174q236 0 316 4v-262q-80 4 -314 4h-491zM223 1817h297l219 -332h-268z" />
<glyph unicode="&#xc9;" horiz-adv-x="1101" d="M166 0q6 229 6 350v676q0 264 -6 350h487q213 0 330 6l-47 -264q-72 6 -330 6h-125v-290h127q231 0 316 4v-260q-84 6 -316 6h-127v-330h174q236 0 316 4v-262q-80 4 -314 4h-491zM377 1485l219 332h297l-248 -332h-268z" />
<glyph unicode="&#xca;" horiz-adv-x="1101" d="M166 0q6 229 6 350v676q0 264 -6 350h487q213 0 330 6l-47 -264q-72 6 -330 6h-125v-290h127q231 0 316 4v-260q-84 6 -316 6h-127v-330h174q236 0 316 4v-262q-80 4 -314 4h-491zM223 1468l293 340h78l285 -340h-224l-100 140l-100 -140h-232z" />
<glyph unicode="&#xcb;" horiz-adv-x="1101" d="M166 0q6 229 6 350v676q0 264 -6 350h487q213 0 330 6l-47 -264q-72 6 -330 6h-125v-290h127q231 0 316 4v-260q-84 6 -316 6h-127v-330h174q236 0 316 4v-262q-80 4 -314 4h-491zM178 1649q0 68 47 114.5t115 46.5t116 -47t48 -114q0 -70 -48 -117t-116 -47t-115 47 t-47 117zM616 1649q0 68 47.5 114.5t115 46.5t115.5 -47t48 -114q0 -70 -48 -117t-115.5 -47t-115 47t-47.5 117z" />
<glyph unicode="&#xcc;" horiz-adv-x="653" d="M-8 1817h297l219 -332h-268zM166 0q6 86 6 375v612q0 301 -6 389h321q-6 -72 -6 -389v-612q0 -287 6 -375h-321z" />
<glyph unicode="&#xcd;" horiz-adv-x="653" d="M145 1485l220 332h297l-248 -332h-269zM166 0q6 86 6 375v612q0 301 -6 389h321q-6 -72 -6 -389v-612q0 -287 6 -375h-321z" />
<glyph unicode="&#xce;" horiz-adv-x="653" d="M-8 1468l293 340h77l285 -340h-223l-100 140l-101 -140h-231zM166 0q6 86 6 375v612q0 301 -6 389h321q-6 -72 -6 -389v-612q0 -287 6 -375h-321z" />
<glyph unicode="&#xcf;" horiz-adv-x="653" d="M-53 1649q0 68 47 114.5t114.5 46.5t115.5 -47t48 -114q0 -70 -48 -117t-115.5 -47t-114.5 47t-47 117zM166 0q6 86 6 375v612q0 301 -6 389h321q-6 -72 -6 -389v-612q0 -287 6 -375h-321zM385 1649q0 68 47 114.5t114.5 46.5t116 -47t48.5 -114q0 -70 -48.5 -117 t-116 -47t-114.5 47t-47 117z" />
<glyph unicode="&#xd0;" horiz-adv-x="1452" d="M27 580v227h147v225q0 248 -8 344h504q291 0 488.5 -192.5t197.5 -489.5q0 -303 -205 -498.5t-483 -195.5h-502q8 109 8 367v213h-147zM483 254h148q184 0 298.5 122t114.5 312.5t-117.5 312t-297.5 121.5h-146v-315h248v-227h-248v-326z" />
<glyph unicode="&#xd1;" horiz-adv-x="1513" d="M166 0q6 80 6 291v727q0 244 -6 381h96l782 -809v432q0 233 -6 354h308q-8 -174 -9 -350v-733q0 -172 6 -309h-94l-782 817v-516q0 -168 6 -285h-307zM430 1493q4 102 65.5 180t159.5 78q61 0 138 -43t100 -43q57 0 61 74h172q-4 -104 -59 -182t-154 -78q-70 0 -144.5 43 t-92.5 43q-57 0 -62 -72h-184z" />
<glyph unicode="&#xd2;" horiz-adv-x="1656" d="M96 692q0 303 209 506t520 203q313 0 524.5 -206t211.5 -511t-210 -507t-520 -202q-315 0 -525 205t-210 512zM412 688q0 -199 117.5 -329t301.5 -130q180 0 297 130t117 327t-118.5 329t-299 132t-298 -130t-117.5 -329zM492 1817h296l220 -332h-269z" />
<glyph unicode="&#xd3;" horiz-adv-x="1656" d="M96 692q0 303 209 506t520 203q313 0 524.5 -206t211.5 -511t-210 -507t-520 -202q-315 0 -525 205t-210 512zM412 688q0 -199 117.5 -329t301.5 -130q180 0 297 130t117 327t-118.5 329t-299 132t-298 -130t-117.5 -329zM643 1485l219 332h297l-248 -332h-268z" />
<glyph unicode="&#xd4;" horiz-adv-x="1656" d="M96 692q0 303 209 506t520 203q313 0 524.5 -206t211.5 -511t-210 -507t-520 -202q-315 0 -525 205t-210 512zM412 688q0 -199 117.5 -329t301.5 -130q180 0 297 130t117 327t-118.5 329t-299 132t-298 -130t-117.5 -329zM492 1468l292 340h78l285 -340h-223l-101 140 l-100 -140h-231z" />
<glyph unicode="&#xd5;" horiz-adv-x="1656" d="M96 692q0 303 209 506t520 203q313 0 524.5 -206t211.5 -511t-210 -507t-520 -202q-315 0 -525 205t-210 512zM412 688q0 -199 117.5 -329t301.5 -130q180 0 297 130t117 327t-118.5 329t-299 132t-298 -130t-117.5 -329zM477 1493q4 102 65.5 180t159.5 78 q61 0 138.5 -43t99.5 -43q57 0 61 74h173q-4 -104 -59.5 -182t-153.5 -78q-70 0 -145 43t-93 43q-57 0 -61 -72h-185z" />
<glyph unicode="&#xd6;" horiz-adv-x="1656" d="M96 692q0 303 209 506t520 203q313 0 524.5 -206t211.5 -511t-210 -507t-520 -202q-315 0 -525 205t-210 512zM412 688q0 -199 117.5 -329t301.5 -130q180 0 297 130t117 327t-118.5 329t-299 132t-298 -130t-117.5 -329zM446 1649q0 68 47.5 114.5t115 46.5t115.5 -47 t48 -114q0 -70 -48 -117t-115.5 -47t-115 47t-47.5 117zM885 1649q0 68 47 114.5t114.5 46.5t115.5 -47t48 -114q0 -70 -48 -117t-115.5 -47t-114.5 47t-47 117z" />
<glyph unicode="&#xd7;" horiz-adv-x="1167" d="M129 842l156 155l295 -295l290 287l158 -153l-291 -291l299 -297l-157 -154l-295 295l-289 -287l-156 156l289 289z" />
<glyph unicode="&#xd8;" horiz-adv-x="1665" d="M96 -8l191 217q-182 199 -183 483q0 303 209 506t521 203q221 0 399 -109l80 92h248l-183 -208q190 -203 191 -492q0 -305 -210 -507t-521 -202q-229 0 -408 115l-86 -98h-248zM418 688q0 -145 65 -254l568 651q-96 61 -217 62q-180 0 -298 -130t-118 -329zM610 297 q101 -68 228 -68q182 0 298.5 130t116.5 327q0 145 -71 266z" />
<glyph unicode="&#xd9;" horiz-adv-x="1447" d="M154 1376h321q-6 -92 -6 -379v-462q0 -141 67.5 -216t188.5 -75q123 0 190.5 75.5t67.5 217.5v460q0 276 -6 379h319q-4 -92 -4 -381v-454q0 -264 -152.5 -414t-412.5 -150q-266 0 -417.5 154t-151.5 410v454q0 301 -4 381zM393 1817h297l219 -332h-268z" />
<glyph unicode="&#xda;" horiz-adv-x="1447" d="M154 1376h321q-6 -92 -6 -379v-462q0 -141 67.5 -216t188.5 -75q123 0 190.5 75.5t67.5 217.5v460q0 276 -6 379h319q-4 -92 -4 -381v-454q0 -264 -152.5 -414t-412.5 -150q-266 0 -417.5 154t-151.5 410v454q0 301 -4 381zM545 1485l219 332h297l-248 -332h-268z" />
<glyph unicode="&#xdb;" horiz-adv-x="1447" d="M154 1376h321q-6 -92 -6 -379v-462q0 -141 67.5 -216t188.5 -75q123 0 190.5 75.5t67.5 217.5v460q0 276 -6 379h319q-4 -92 -4 -381v-454q0 -264 -152.5 -414t-412.5 -150q-266 0 -417.5 154t-151.5 410v454q0 301 -4 381zM393 1468l293 340h78l285 -340h-224l-100 140 l-100 -140h-232z" />
<glyph unicode="&#xdc;" horiz-adv-x="1447" d="M154 1376h321q-6 -92 -6 -379v-462q0 -141 67.5 -216t188.5 -75q123 0 190.5 75.5t67.5 217.5v460q0 276 -6 379h319q-4 -92 -4 -381v-454q0 -264 -152.5 -414t-412.5 -150q-266 0 -417.5 154t-151.5 410v454q0 301 -4 381zM348 1649q0 68 47 114.5t115 46.5t116 -47 t48 -114q0 -70 -48 -117t-116 -47t-115 47t-47 117zM786 1649q0 68 47.5 114.5t115 46.5t115.5 -47t48 -114q0 -70 -48 -117t-115.5 -47t-115 47t-47.5 117z" />
<glyph unicode="&#xdd;" horiz-adv-x="1341" d="M16 1376h369q14 -35 86 -164l211 -352l207 346q41 68 94 170h342q-55 -78 -184 -278l-316 -500v-291q0 -221 6 -307h-319q4 225 4 309v287l-330 526q-133 205 -170 254zM496 1485l219 332h297l-248 -332h-268z" />
<glyph unicode="&#xde;" horiz-adv-x="1169" d="M166 0q8 100 8 344v676q0 260 -8 356h321l-6 -182v-47h90q227 0 371.5 -120t144.5 -333q0 -207 -139 -322.5t-379 -115.5h-88v-45q0 -113 6 -211h-321zM481 483h78q100 0 166 61.5t66 154t-63.5 153.5t-166.5 61h-80v-430z" />
<glyph unicode="&#xdf;" horiz-adv-x="1316" d="M152 -2q4 63 4 229v768q0 223 143 362.5t354 139.5q207 0 339 -108.5t132 -294.5q0 -113 -54 -200t-138 -120q135 -29 221 -129t86 -256q0 -186 -136 -301t-329 -115q-111 0 -205 33v270q84 -45 183 -45q78 0 133 53.5t55 131.5q0 94 -73.5 162.5t-174.5 68.5 q-78 0 -110 -10v223q29 -4 61 -4q90 0 146.5 58.5t56.5 148.5q0 86 -51.5 134t-130.5 48q-100 0 -155.5 -62.5t-53.5 -185.5l6 -770q0 -172 4 -229h-313z" />
<glyph unicode="&#xe0;" d="M80 279q0 139 96 222t246 95q104 12 219 12v29q0 66 -53 103.5t-139 37.5q-123 0 -236 -57l-88 192q133 88 362 88q221 0 333 -108.5t112 -312.5v-252q0 -205 41 -328h-291l-14 104q-98 -127 -273 -127q-135 0 -225 84.5t-90 217.5zM166 1427h297l219 -331h-268zM373 285 q0 -49 30.5 -78t79.5 -29q96 0 162 80v158l-125 -6q-68 -2 -107.5 -34t-39.5 -91z" />
<glyph unicode="&#xe1;" d="M80 279q0 139 96 222t246 95q104 12 219 12v29q0 66 -53 103.5t-139 37.5q-123 0 -236 -57l-88 192q133 88 362 88q221 0 333 -108.5t112 -312.5v-252q0 -205 41 -328h-291l-14 104q-98 -127 -273 -127q-135 0 -225 84.5t-90 217.5zM317 1096l220 331h297l-248 -331h-269 zM373 285q0 -49 30.5 -78t79.5 -29q96 0 162 80v158l-125 -6q-68 -2 -107.5 -34t-39.5 -91z" />
<glyph unicode="&#xe2;" d="M80 279q0 139 96 222t246 95q104 12 219 12v29q0 66 -53 103.5t-139 37.5q-123 0 -236 -57l-88 192q133 88 362 88q221 0 333 -108.5t112 -312.5v-252q0 -205 41 -328h-291l-14 104q-98 -127 -273 -127q-135 0 -225 84.5t-90 217.5zM166 1079l293 340h78l284 -340h-223 l-100 140l-101 -140h-231zM373 285q0 -49 30.5 -78t79.5 -29q96 0 162 80v158l-125 -6q-68 -2 -107.5 -34t-39.5 -91z" />
<glyph unicode="&#xe3;" d="M80 279q0 139 96 222t246 95q104 12 219 12v29q0 66 -53 103.5t-139 37.5q-123 0 -236 -57l-88 192q133 88 362 88q221 0 333 -108.5t112 -312.5v-252q0 -205 41 -328h-291l-14 104q-98 -127 -273 -127q-135 0 -225 84.5t-90 217.5zM152 1104q4 102 65.5 180t159.5 78 q61 0 138 -43t99 -43q57 0 62 74h172q-4 -104 -59.5 -182t-153.5 -78q-70 0 -144.5 43t-93.5 43q-57 0 -61 -72h-184zM373 285q0 -49 30.5 -78t79.5 -29q96 0 162 80v158l-125 -6q-68 -2 -107.5 -34t-39.5 -91z" />
<glyph unicode="&#xe4;" d="M80 279q0 139 96 222t246 95q104 12 219 12v29q0 66 -53 103.5t-139 37.5q-123 0 -236 -57l-88 192q133 88 362 88q221 0 333 -108.5t112 -312.5v-252q0 -205 41 -328h-291l-14 104q-98 -127 -273 -127q-135 0 -225 84.5t-90 217.5zM121 1260q0 68 47 114.5t114.5 46.5 t115.5 -47t48 -114q0 -70 -48 -117t-115.5 -47t-114.5 47t-47 117zM373 285q0 -49 30.5 -78t79.5 -29q96 0 162 80v158l-125 -6q-68 -2 -107.5 -34t-39.5 -91zM559 1260q0 68 47 114.5t114.5 46.5t116 -47t48.5 -114q0 -70 -48.5 -117t-116 -47t-114.5 47t-47 117z" />
<glyph unicode="&#xe5;" d="M80 279q0 139 96 222t246 95q104 12 219 12v29q0 66 -53 103.5t-139 37.5q-123 0 -236 -57l-88 192q133 88 362 88q221 0 333 -108.5t112 -312.5v-252q0 -205 41 -328h-291l-14 104q-98 -127 -273 -127q-135 0 -225 84.5t-90 217.5zM281 1255q0 86 63.5 143.5t155.5 57.5 q94 0 157.5 -58.5t63.5 -142.5t-63.5 -142t-157.5 -58q-92 0 -155.5 58t-63.5 142zM373 285q0 -49 30.5 -78t79.5 -29q96 0 162 80v158l-125 -6q-68 -2 -107.5 -34t-39.5 -91zM426 1253q0 -31 20.5 -54t53 -23t54 21.5t21.5 55.5q0 33 -21.5 54.5t-53.5 21.5 q-31 0 -52.5 -21.5t-21.5 -54.5z" />
<glyph unicode="&#xe6;" horiz-adv-x="1601" d="M80 279q0 143 94 224t248 93q104 12 219 12v29q0 66 -53 103.5t-139 37.5q-123 0 -236 -57l-88 190q137 90 346 90q199 0 291 -116q119 115 309 114q223 0 339 -137t116 -319q0 -63 -13 -113h-626q16 -211 258 -211q152 0 321 76v-223q-154 -88 -340 -88 q-135 0 -238.5 42t-160.5 113q-129 -162 -326 -162q-141 0 -231 83.5t-90 218.5zM373 285q0 -49 30.5 -78t79.5 -29q104 0 181 94q-29 68 -29 144l-115 -6q-68 -2 -107.5 -34t-39.5 -91zM881 590h358q-2 82 -44 135t-128 53t-134 -56t-52 -132z" />
<glyph unicode="&#xe7;" horiz-adv-x="991" d="M82 489q0 223 159.5 367.5t389.5 144.5q100 0 229 -38v-279q-90 57 -198 57q-137 0 -212 -73.5t-75 -182.5q0 -106 74.5 -174.5t212.5 -68.5q98 0 204 53v-270q-90 -35 -209 -39l-32 -66q172 -35 172 -201q0 -98 -70 -157.5t-199 -59.5q-90 0 -157 27l4 141 q68 -23 117 -22q109 0 108 69q0 72 -121 72q-43 0 -69 -8l106 215q-195 35 -314.5 170t-119.5 323z" />
<glyph unicode="&#xe8;" d="M82 494q0 213 128 359t345 146q225 0 341 -137t116 -319q0 -63 -13 -113h-626q16 -211 258 -211q156 0 321 76v-223q-150 -88 -340 -88q-248 0 -389 138.5t-141 371.5zM219 1427h297l219 -331h-268zM365 590h360q0 82 -43 135t-129 53q-88 0 -135 -55t-53 -133z" />
<glyph unicode="&#xe9;" d="M82 494q0 213 128 359t345 146q225 0 341 -137t116 -319q0 -63 -13 -113h-626q16 -211 258 -211q156 0 321 76v-223q-150 -88 -340 -88q-248 0 -389 138.5t-141 371.5zM365 590h360q0 82 -43 135t-129 53q-88 0 -135 -55t-53 -133zM373 1096l219 331h297l-248 -331h-268z " />
<glyph unicode="&#xea;" d="M82 494q0 213 128 359t345 146q225 0 341 -137t116 -319q0 -63 -13 -113h-626q16 -211 258 -211q156 0 321 76v-223q-150 -88 -340 -88q-248 0 -389 138.5t-141 371.5zM219 1079l293 340h78l284 -340h-223l-100 140l-100 -140h-232zM365 590h360q0 82 -43 135t-129 53 q-88 0 -135 -55t-53 -133z" />
<glyph unicode="&#xeb;" d="M82 494q0 213 128 359t345 146q225 0 341 -137t116 -319q0 -63 -13 -113h-626q16 -211 258 -211q156 0 321 76v-223q-150 -88 -340 -88q-248 0 -389 138.5t-141 371.5zM174 1260q0 68 47 114.5t114.5 46.5t116 -47t48.5 -114q0 -70 -48.5 -117t-116 -47t-114.5 47 t-47 117zM365 590h360q0 82 -43 135t-129 53q-88 0 -135 -55t-53 -133zM612 1260q0 68 47.5 114.5t115 46.5t115.5 -47t48 -114q0 -70 -48 -117t-115.5 -47t-115 47t-47.5 117z" />
<glyph unicode="&#xec;" horiz-adv-x="618" d="M-14 1427h297l219 -331h-269zM152 981h317q-8 -74 -8 -205v-573q0 -139 8 -203h-315q8 72 8 203v567q0 143 -10 211z" />
<glyph unicode="&#xed;" horiz-adv-x="618" d="M139 1096l219 331h297l-247 -331h-269zM152 981h317q-8 -74 -8 -205v-573q0 -139 8 -203h-315q8 72 8 203v567q0 143 -10 211z" />
<glyph unicode="&#xee;" horiz-adv-x="618" d="M-14 1079l293 340h77l285 -340h-223l-101 140l-100 -140h-231zM152 981h317q-8 -74 -8 -205v-573q0 -139 8 -203h-315q8 72 8 203v567q0 143 -10 211z" />
<glyph unicode="&#xef;" horiz-adv-x="618" d="M-59 1260q0 68 47 114.5t114.5 46.5t115.5 -47t48 -114q0 -70 -48 -117t-115.5 -47t-114.5 47t-47 117zM152 981h317q-8 -74 -8 -205v-573q0 -139 8 -203h-315q8 72 8 203v567q0 143 -10 211zM379 1260q0 68 47 114.5t114.5 46.5t116 -47t48.5 -114q0 -70 -48.5 -117 t-116 -47t-114.5 47t-47 117z" />
<glyph unicode="&#xf0;" horiz-adv-x="1179" d="M82 489q0 195 124 323t308 128q150 0 250 -88q-31 166 -172 281l-238 -125l-63 114l174 90q-119 53 -248 64l31 227q272 -20 475 -155l213 110l65 -112l-165 -89q262 -252 262 -677q0 -279 -145.5 -436.5t-364.5 -157.5q-213 0 -359.5 145t-146.5 358zM369 489.5 q0 -104.5 62.5 -178t156.5 -73.5t157.5 75.5t63.5 182.5q0 102 -62.5 172.5t-158.5 70.5q-94 0 -156.5 -72.5t-62.5 -177z" />
<glyph unicode="&#xf1;" horiz-adv-x="1202" d="M45 803l64 178h323l4 -119q98 135 295 135q344 0 344 -446v-311q0 -182 4 -240h-301q4 66 4 242v344q0 80 -45 124t-116 44q-111 0 -185 -129v-383q0 -182 4 -242h-301q6 98 6 242v561h-100zM242 1104q4 102 65.5 180t159.5 78q61 0 138 -43t100 -43q57 0 61 74h172 q-4 -104 -59.5 -182t-153.5 -78q-70 0 -144.5 43t-93.5 43q-57 0 -61 -72h-184z" />
<glyph unicode="&#xf2;" horiz-adv-x="1177" d="M82 489q0 215 149.5 362.5t356.5 147.5q213 0 360.5 -149.5t147.5 -360.5q0 -215 -149.5 -359t-358.5 -144q-213 0 -359.5 147t-146.5 356zM248 1425h297l219 -331h-268zM369 489q0 -102 62.5 -176.5t156.5 -74.5t157.5 73.5t63.5 177.5q0 106 -63.5 179t-157.5 73 t-156.5 -77t-62.5 -175z" />
<glyph unicode="&#xf3;" horiz-adv-x="1177" d="M82 489q0 215 149.5 362.5t356.5 147.5q213 0 360.5 -149.5t147.5 -360.5q0 -215 -149.5 -359t-358.5 -144q-213 0 -359.5 147t-146.5 356zM369 489q0 -102 62.5 -176.5t156.5 -74.5t157.5 73.5t63.5 177.5q0 106 -63.5 179t-157.5 73t-156.5 -77t-62.5 -175zM399 1094 l219 331h297l-247 -331h-269z" />
<glyph unicode="&#xf4;" horiz-adv-x="1177" d="M82 489q0 215 149.5 362.5t356.5 147.5q213 0 360.5 -149.5t147.5 -360.5q0 -215 -149.5 -359t-358.5 -144q-213 0 -359.5 147t-146.5 356zM248 1077l293 340h77l285 -340h-223l-100 140l-101 -140h-231zM369 489q0 -102 62.5 -176.5t156.5 -74.5t157.5 73.5t63.5 177.5 q0 106 -63.5 179t-157.5 73t-156.5 -77t-62.5 -175z" />
<glyph unicode="&#xf5;" horiz-adv-x="1177" d="M82 489q0 215 149.5 362.5t356.5 147.5q213 0 360.5 -149.5t147.5 -360.5q0 -215 -149.5 -359t-358.5 -144q-213 0 -359.5 147t-146.5 356zM233 1102q4 102 65.5 180t160.5 78q61 0 138 -43t99 -43q57 0 62 74h172q-4 -104 -59.5 -182.5t-153.5 -78.5q-70 0 -144.5 43.5 t-93.5 43.5q-57 0 -61 -72h-185zM369 489q0 -102 62.5 -176.5t156.5 -74.5t157.5 73.5t63.5 177.5q0 106 -63.5 179t-157.5 73t-156.5 -77t-62.5 -175z" />
<glyph unicode="&#xf6;" horiz-adv-x="1177" d="M82 489q0 215 149.5 362.5t356.5 147.5q213 0 360.5 -149.5t147.5 -360.5q0 -215 -149.5 -359t-358.5 -144q-213 0 -359.5 147t-146.5 356zM203 1257q0 68 47 115t114.5 47t115.5 -47t48 -115q0 -70 -48 -116.5t-115.5 -46.5t-114.5 46.5t-47 116.5zM369 489 q0 -102 62.5 -176.5t156.5 -74.5t157.5 73.5t63.5 177.5q0 106 -63.5 179t-157.5 73t-156.5 -77t-62.5 -175zM641 1257q0 68 47 115t114.5 47t116 -47t48.5 -115q0 -70 -48.5 -116.5t-116 -46.5t-114.5 46.5t-47 116.5z" />
<glyph unicode="&#xf7;" horiz-adv-x="1159" d="M96 508v229h965v-229h-965zM406 221q0 72 50 123t121.5 51t123 -51t51.5 -123q0 -70 -51.5 -121t-122.5 -51q-70 0 -121 51t-51 121zM406 1034.5q0 71.5 50 121.5t121.5 50t123 -50t51.5 -121.5t-51.5 -123t-123 -51.5t-121.5 51.5t-50 123z" />
<glyph unicode="&#xf8;" horiz-adv-x="1185" d="M82 -8l139 155q-131 143 -131 342q0 215 149.5 362.5t356.5 147.5q164 0 299 -96l74 82h123l-127 -143q139 -150 139 -353q0 -215 -149.5 -359t-358.5 -144q-172 0 -305 100l-82 -94h-127zM377 489q0 -70 33 -131l307 344q-55 39 -121 39q-94 0 -156.5 -77t-62.5 -175z M469 285q53 -47 127 -47q94 0 157.5 73.5t63.5 177.5q0 82 -39 144z" />
<glyph unicode="&#xf9;" horiz-adv-x="1230" d="M45 803l64 178h342q-8 -82 -9 -213v-332q0 -211 160 -211q53 0 96 36t66 97v404q0 156 -4 219h309q-6 -61 -6 -217v-551q0 -129 18 -213h-260l-30 137q-92 -156 -283 -155q-168 0 -266.5 108.5t-98.5 310.5v402h-98zM252 1427h297l219 -331h-268z" />
<glyph unicode="&#xfa;" horiz-adv-x="1230" d="M45 803l64 178h342q-8 -82 -9 -213v-332q0 -211 160 -211q53 0 96 36t66 97v404q0 156 -4 219h309q-6 -61 -6 -217v-551q0 -129 18 -213h-260l-30 137q-92 -156 -283 -155q-168 0 -266.5 108.5t-98.5 310.5v402h-98zM403 1096l220 331h297l-248 -331h-269z" />
<glyph unicode="&#xfb;" horiz-adv-x="1230" d="M45 803l64 178h342q-8 -82 -9 -213v-332q0 -211 160 -211q53 0 96 36t66 97v404q0 156 -4 219h309q-6 -61 -6 -217v-551q0 -129 18 -213h-260l-30 137q-92 -156 -283 -155q-168 0 -266.5 108.5t-98.5 310.5v402h-98zM252 1079l293 340h78l284 -340h-223l-100 140 l-101 -140h-231z" />
<glyph unicode="&#xfc;" horiz-adv-x="1230" d="M45 803l64 178h342q-8 -82 -9 -213v-332q0 -211 160 -211q53 0 96 36t66 97v404q0 156 -4 219h309q-6 -61 -6 -217v-551q0 -129 18 -213h-260l-30 137q-92 -156 -283 -155q-168 0 -266.5 108.5t-98.5 310.5v402h-98zM207 1260q0 68 47 114.5t114.5 46.5t115.5 -47 t48 -114q0 -70 -48 -117t-115.5 -47t-114.5 47t-47 117zM645 1260q0 68 47 114.5t114.5 46.5t116 -47t48.5 -114q0 -70 -48.5 -117t-116 -47t-114.5 47t-47 117z" />
<glyph unicode="&#xfd;" horiz-adv-x="1150" d="M14 981h355q20 -74 55 -154l178 -436l156 426q25 74 47 164h332q-31 -59 -97 -217l-352 -823q-80 -193 -172 -273t-217 -80h-184l6 242q133 0 181 18.5t89 94.5l55 116l-321 695q-43 98 -111 227zM401 1096l220 331h297l-248 -331h-269z" />
<glyph unicode="&#xfe;" horiz-adv-x="1271" d="M152 1493h307q-6 -96 -6 -203v-403q102 115 280 114q201 0 329 -142t128 -355q0 -219 -132 -367.5t-339 -148.5q-147 0 -266 82v-316q0 -119 6 -203h-303q6 92 6 207v1524q0 135 -10 211zM453 332q80 -96 209 -96q113 0 175 72.5t62 183.5q0 115 -64.5 188.5t-170.5 73.5 q-129 0 -211 -95v-327z" />
<glyph unicode="&#xff;" horiz-adv-x="1150" d="M14 981h355q20 -74 55 -154l178 -436l156 426q25 74 47 164h332q-31 -59 -97 -217l-352 -823q-80 -193 -172 -273t-217 -80h-184l6 242q133 0 181 18.5t89 94.5l55 116l-321 695q-43 98 -111 227zM203 1260q0 68 47 114.5t114.5 46.5t115.5 -47t48 -114q0 -70 -48 -117 t-115.5 -47t-114.5 47t-47 117zM641 1260q0 68 47 114.5t114.5 46.5t116 -47t48.5 -114q0 -70 -48.5 -117t-116 -47t-114.5 47t-47 117z" />
<glyph unicode="&#x152;" horiz-adv-x="1751" d="M96 688q0 305 208 496.5t523 191.5h465q211 0 332 6l-8 -264q-72 4 -320 4h-147v-288h125q233 0 317 4v-258q-129 6 -317 6h-125v-332h172q238 0 317 4v-262q-80 4 -315 4h-496q-313 0 -522 193.5t-209 494.5zM412 688q0 -193 121.5 -314.5t302.5 -121.5v870 q-197 0 -310.5 -117.5t-113.5 -316.5z" />
<glyph unicode="&#x153;" horiz-adv-x="1816" d="M82 489q0 215 149.5 362.5t356.5 147.5q219 0 354 -165q119 166 342 165q225 0 341 -138t116 -318q0 -55 -15 -113h-624q16 -211 258 -211q152 0 321 76v-223q-154 -88 -340 -88q-266 0 -395 168q-135 -166 -358 -166q-213 0 -359.5 147t-146.5 356zM369 489 q0 -102 62.5 -176.5t156.5 -74.5t157.5 73.5t63.5 177.5q0 106 -63.5 179t-157.5 73t-156.5 -77t-62.5 -175zM1094 590h360q-2 82 -44 135t-128 53q-88 0 -135 -55t-53 -133z" />
<glyph unicode="&#x178;" horiz-adv-x="1341" d="M16 1376h369q14 -35 86 -164l211 -352l207 346q41 68 94 170h342q-55 -78 -184 -278l-316 -500v-291q0 -221 6 -307h-319q4 225 4 309v287l-330 526q-133 205 -170 254zM297 1649q0 68 47 114.5t114.5 46.5t116 -47t48.5 -114q0 -70 -48.5 -117t-116 -47t-114.5 47 t-47 117zM735 1649q0 68 47 114.5t115 46.5t116 -47t48 -114q0 -70 -48 -117t-116 -47t-115 47t-47 117z" />
<glyph unicode="&#x2000;" horiz-adv-x="922" />
<glyph unicode="&#x2001;" horiz-adv-x="1845" />
<glyph unicode="&#x2002;" horiz-adv-x="922" />
<glyph unicode="&#x2003;" horiz-adv-x="1845" />
<glyph unicode="&#x2004;" horiz-adv-x="615" />
<glyph unicode="&#x2005;" horiz-adv-x="461" />
<glyph unicode="&#x2006;" horiz-adv-x="307" />
<glyph unicode="&#x2007;" horiz-adv-x="307" />
<glyph unicode="&#x2008;" horiz-adv-x="230" />
<glyph unicode="&#x2009;" horiz-adv-x="369" />
<glyph unicode="&#x200a;" horiz-adv-x="102" />
<glyph unicode="&#x2010;" horiz-adv-x="751" d="M76 379v278h600v-278h-600z" />
<glyph unicode="&#x2011;" horiz-adv-x="751" d="M76 379v278h600v-278h-600z" />
<glyph unicode="&#x2012;" horiz-adv-x="751" d="M76 379v278h600v-278h-600z" />
<glyph unicode="&#x2013;" horiz-adv-x="1099" d="M72 375v268h958v-268h-958z" />
<glyph unicode="&#x2014;" horiz-adv-x="2050" d="M27 375v268h1998v-268h-1998z" />
<glyph unicode="&#x2018;" horiz-adv-x="557" d="M113 987q0 254 161 520l191 -65q-78 -209 -78 -383q0 -96 21 -187l-277 -47q-18 88 -18 162z" />
<glyph unicode="&#x2019;" horiz-adv-x="555" d="M98 893q78 205 78 381q0 102 -22 186l276 47q19 -73 19 -161q0 -246 -160 -521z" />
<glyph unicode="&#x201a;" horiz-adv-x="555" d="M98 -332q78 209 78 383q0 98 -22 187l276 47q19 -74 19 -162q0 -250 -160 -520z" />
<glyph unicode="&#x201c;" horiz-adv-x="1054" d="M113 987q0 254 161 520l191 -65q-78 -209 -78 -383q0 -96 21 -187l-277 -47q-18 88 -18 162zM612 987q0 250 160 520l191 -65q-78 -209 -78 -383q0 -98 22 -187l-276 -47q-19 74 -19 162z" />
<glyph unicode="&#x201d;" horiz-adv-x="1054" d="M98 893q78 205 78 381q0 102 -22 186l276 47q19 -73 19 -161q0 -246 -160 -521zM596 893q78 205 78 381q0 98 -21 186l277 47q18 -87 18 -161q0 -250 -162 -521z" />
<glyph unicode="&#x201e;" horiz-adv-x="1054" d="M98 -324q78 209 78 383q0 98 -22 187l276 47q19 -74 19 -162q0 -250 -160 -520zM596 -324q78 209 78 383q0 96 -21 187l277 47q18 -88 18 -162q0 -254 -162 -520z" />
<glyph unicode="&#x2022;" horiz-adv-x="890" d="M164 524q0 117 82 200t198 83q119 0 201 -83t82 -200q0 -119 -82 -200.5t-201 -81.5q-117 0 -198.5 81.5t-81.5 200.5z" />
<glyph unicode="&#x2026;" horiz-adv-x="1843" d="M109 176q0 82 59 140.5t139 58.5q82 0 140.5 -58.5t58.5 -140.5q0 -80 -59.5 -138t-141.5 -58q-80 0 -138 57t-58 139zM723 176q0 82 59.5 140.5t139.5 58.5q82 0 140 -58.5t58 -140.5q0 -80 -59.5 -138t-140.5 -58q-80 0 -138.5 57t-58.5 139zM1337 176q0 82 59.5 140.5 t139.5 58.5q82 0 140.5 -58.5t58.5 -140.5q0 -80 -59.5 -138t-141.5 -58q-80 0 -138.5 57t-58.5 139z" />
<glyph unicode="&#x202f;" horiz-adv-x="369" />
<glyph unicode="&#x2039;" horiz-adv-x="759" d="M88 475v45l561 441v-273l-243 -190l245 -187v-274z" />
<glyph unicode="&#x203a;" horiz-adv-x="759" d="M109 686v275l563 -439v-45l-561 -440v272l245 191z" />
<glyph unicode="&#x205f;" horiz-adv-x="461" />
<glyph unicode="&#x20ac;" horiz-adv-x="1124" d="M59 459v159h136v56q0 41 2 59h-138v162h154q92 481 569 481q127 0 262 -43v-272q-104 72 -237 72q-123 0 -194.5 -57.5t-100.5 -180.5h393l-6 -162h-405q-2 -18 -2 -57t2 -58h401l-6 -159h-375q61 -233 291 -234q142 0 244 66l10 -264q-117 -41 -279 -41q-487 0 -569 473 h-152z" />
<glyph unicode="&#x2122;" horiz-adv-x="1466" d="M59 1225v151h508v-151h-170v-324q0 -113 2 -156h-182q6 88 6 154v326h-164zM649 745q4 57 8 152l17 483h125l205 -331l196 331h129l19 -483q6 -127 8 -152h-164q0 84 -2 127l-10 207l-158 -221h-39l-147 229l-11 -221q0 -14 -1 -53t-1 -68h-174z" />
<glyph unicode="&#x25fc;" horiz-adv-x="983" d="M0 0v983h983v-983h-983z" />
</font>
</defs>
</svg>
