<?xml version="1.0" standalone="no"?>
<!DOCTYPE svg PUBLIC "-//W3C//DTD SVG 1.1//EN" "http://www.w3.org/Graphics/SVG/1.1/DTD/svg11.dtd" >
<svg xmlns="http://www.w3.org/2000/svg" xmlns:xlink="http://www.w3.org/1999/xlink" version="1.1">
<metadata></metadata>
<defs>
<font id="radianceregular" horiz-adv-x="1073" >
<font-face units-per-em="2048" ascent="1534" descent="-514" />
<missing-glyph horiz-adv-x="456" />
<glyph unicode="&#xfb01;" horiz-adv-x="1183" d="M78 809v139h149v146q0 180 84 283.5t242 103.5q66 0 174 -25l-22 -143q-43 25 -117 24q-96 0 -140.5 -66.5t-44.5 -170.5v-152h621q-6 -49 -6 -203v-544q0 -158 6 -201h-188q6 47 6 201v608h-439v-610q0 -143 3 -199h-183q4 176 4 199v610h-149zM836 1257.5 q0 45.5 30.5 77t75.5 31.5t78 -31.5t33 -77t-33 -77t-78 -31.5t-75.5 31.5t-30.5 77z" />
<glyph unicode="&#xfb02;" horiz-adv-x="1196" d="M78 809v139h149v146q0 180 84 283.5t242 103.5q66 0 174 -25l-22 -143q-43 25 -117 24q-96 0 -140.5 -66.5t-44.5 -170.5v-152h238l-27 -139h-211v-610q0 -143 3 -199h-183q4 176 4 199v610h-149zM815 0q4 43 4 201v1077q0 113 -4 195h186q-6 -39 -6 -179v-1093 q0 -158 4 -201h-184z" />
<glyph horiz-adv-x="0" />
<glyph unicode="&#xd;" horiz-adv-x="681" />
<glyph unicode=" "  horiz-adv-x="456" />
<glyph unicode="&#x09;" horiz-adv-x="456" />
<glyph unicode="&#xa0;" horiz-adv-x="456" />
<glyph unicode="!" horiz-adv-x="552" d="M154 104q0 51 37.5 88t84.5 37q49 0 85 -35.5t36 -87.5q0 -47 -36.5 -83.5t-88.5 -38.5q-47 0 -82.5 35.5t-35.5 84.5zM184 420q6 68 6 231v496q0 172 -6 229h189q-4 -49 -4 -229v-496q0 -180 4 -231h-189z" />
<glyph unicode="&#x22;" horiz-adv-x="729" d="M123 1466h172l-27 -491h-116zM434 1466h172l-26 -491h-117z" />
<glyph unicode="#" horiz-adv-x="1220" d="M78 397l6 125h231l64 330h-223l6 121h239l68 366h133l-67 -366h268l69 366h136l-72 -366h213l-6 -121h-228l-63 -330h221l-6 -125h-240l-71 -379h-133l71 379h-270l-72 -379h-133l74 379h-215zM446 522h271l65 330h-272z" />
<glyph unicode="$" horiz-adv-x="1089" d="M182 94l23 164q102 -86 289 -86q104 0 164.5 53.5t60.5 147.5q0 125 -205 241q-70 39 -113 68t-94 74t-75.5 101t-24.5 126q0 127 75.5 213t211.5 117l2 149h118v-141q133 -8 236 -39v-156q-102 68 -252 68q-92 0 -150.5 -49t-58.5 -137q0 -68 50 -118t202 -145 q80 -45 130 -82.5t96 -110.5t46 -157q0 -135 -82.5 -225t-230.5 -119v-162h-119v152q-168 2 -299 53z" />
<glyph unicode="%" horiz-adv-x="1648" d="M92 1038q0 147 90 245.5t226 98.5q133 0 223 -95t90 -242.5t-91 -245t-224.5 -97.5t-223.5 95.5t-90 240.5zM227 1047q0 -109 49.5 -169.5t131.5 -60.5q80 0 131 64.5t51 161t-53.5 160t-135.5 63.5q-76 0 -125 -61.5t-49 -157.5zM268 0l967 1372h145l-970 -1372h-142z M928 322q0 152 91 248t224 96q131 0 222 -96.5t91 -243.5q0 -145 -91 -242.5t-224 -97.5q-131 0 -222 95.5t-91 240.5zM1059 322q0 -96 50 -159t134 -63q80 0 130 63.5t50 162t-50 160t-132 61.5t-132 -62.5t-50 -162.5z" />
<glyph unicode="&#x26;" horiz-adv-x="1474" d="M111 371q0 225 305 395q-84 82 -124 148.5t-40 148.5q0 123 95 206t239 83q135 0 227 -81t92 -204q0 -160 -246 -317q145 -133 332 -336q182 211 238 317h182q-127 -190 -321 -420q156 -166 280 -174l19 -147q-127 2 -214.5 45t-199.5 151q-215 -205 -447 -204 q-184 0 -300.5 110.5t-116.5 278.5zM289 383q0 -113 76.5 -185.5t191.5 -72.5q152 0 313 168q-180 207 -368 381q-213 -125 -213 -291zM414 1069q0 -98 147 -229q100 55 145.5 109.5t45.5 119.5q0 68 -47.5 115t-120.5 47q-76 0 -123 -46t-47 -116z" />
<glyph unicode="'" horiz-adv-x="417" d="M123 1466h172l-27 -491h-116z" />
<glyph unicode="(" horiz-adv-x="671" d="M121 553q0 645 375 1028l98 -108q-152 -197 -217.5 -417t-65.5 -501q0 -272 62.5 -495.5t218.5 -424.5l-96 -104q-375 377 -375 1022z" />
<glyph unicode=")" horiz-adv-x="671" d="M78 -358q152 195 217 416t65 501q0 272 -62 494.5t-218 423.5l96 104q375 -375 375 -1020q0 -647 -375 -1030z" />
<glyph unicode="*" horiz-adv-x="980" d="M129 1028v135q113 -16 293 -24q-39 61 -174 243l112 68q0 -4 134 -272q6 12 35.5 74.5t55 120t33.5 77.5l115 -68q-57 -66 -178 -245q264 18 297 24v-133q-88 12 -291 27q109 -168 174 -244l-114 -63q-16 41 -65.5 144t-59.5 128q-131 -270 -134 -275l-118 70 q45 55 176 240q-61 -2 -168 -12.5t-123 -14.5z" />
<glyph unicode="+" horiz-adv-x="1087" d="M98 449v139h367v389h158v-389h368v-139h-368v-392h-158v392h-367z" />
<glyph unicode="," horiz-adv-x="489" d="M96 -266q92 168 92 342q0 82 -10 135l184 35q10 -47 11 -119q0 -240 -172 -438z" />
<glyph unicode="-" horiz-adv-x="702" d="M92 418v157h518v-157h-518z" />
<glyph unicode="." horiz-adv-x="487" d="M137 104q0 51 38 88t85 37q49 0 85 -35.5t36 -87.5q0 -47 -37 -83.5t-88 -38.5q-47 0 -83 35.5t-36 84.5z" />
<glyph unicode="/" horiz-adv-x="690" d="M33 -74l450 1508h172l-454 -1508h-168z" />
<glyph unicode="0" horiz-adv-x="1124" d="M100 680q0 315 122 505.5t337 190.5q219 0 342 -193.5t123 -504.5q0 -309 -124 -502.5t-341 -193.5q-219 0 -339 192.5t-120 505.5zM291 678q0 -260 69.5 -403.5t198.5 -143.5q131 0 203 145.5t72 401.5t-73 402.5t-202 146.5t-198.5 -145.5t-69.5 -403.5z" />
<glyph unicode="1" horiz-adv-x="989" d="M180 1188q207 90 406 188h96q0 -20 -2 -121.5t-2 -136.5v-913q0 -102 4 -205h-186q2 84 2 207v971q-207 -88 -287 -131z" />
<glyph unicode="2" d="M131 0v129q596 492 596 813q0 131 -74.5 207t-201.5 76q-199 0 -295 -107v187q125 84 329.5 84t321.5 -112t117 -308q0 -98 -38 -195.5t-122 -207t-161 -193.5t-212 -219h299q178 0 275 8v-162h-834z" />
<glyph unicode="3" horiz-adv-x="1091" d="M178 27v161q111 -57 250 -57t222 68.5t83 189.5q0 111 -88 174.5t-225 63.5q-57 0 -92 -2v143q14 0 40.5 -1t39.5 -1q133 0 211.5 64.5t78.5 170.5q0 109 -66.5 172.5t-176.5 63.5q-152 0 -275 -82v166q152 68 295 68q188 0 299 -96.5t111 -262.5q0 -109 -73 -192.5 t-202 -128.5q143 -35 228.5 -123t85.5 -207q0 -178 -128 -287.5t-341 -109.5q-156 0 -277 45z" />
<glyph unicode="4" horiz-adv-x="1103" d="M59 387v92l693 899h77v-858q111 0 222 4v-139q-47 2 -222 2v-227q0 -86 9 -160l-191 4q4 39 4 154v229h-592zM242 520h409l4 563z" />
<glyph unicode="5" horiz-adv-x="1071" d="M137 37v168q119 -74 260 -74q143 0 236.5 78t93.5 203q0 121 -87 197.5t-259 76.5q-119 0 -193 -22q4 33 10.5 81t8.5 78l51 561q94 -6 201 -6h237q106 0 189 6v-161q-123 4 -197 4h-282l-46 -418q63 14 113 14q207 0 330 -108.5t123 -294.5q0 -195 -138.5 -319 t-359.5 -124q-139 1 -291 60z" />
<glyph unicode="6" horiz-adv-x="1099" d="M90 438q0 270 165 520t425 424h227q-178 -102 -348 -278t-237 -350q115 113 276 112q164 0 293 -130t129 -308t-138.5 -311t-330.5 -133q-190 0 -325.5 133t-135.5 321zM272 434q0 -125 81 -214t206 -89q131 0 207 86t76 209q0 121 -85 205t-202 84t-200 -81t-83 -200z " />
<glyph unicode="7" horiz-adv-x="1042" d="M96 1378q55 -2 228 -2h399q45 0 126 2t118 2q-94 -199 -156 -350l-332 -762q-78 -172 -110 -268h-211q4 8 22.5 41t42 76t39.5 80l459 1024h-438q-113 -1 -174 -7z" />
<glyph unicode="8" horiz-adv-x="1110" d="M109 360q0 115 77.5 211.5t200.5 139.5q-113 49 -175 129t-62 180q0 154 115.5 254t289.5 100t287.5 -101.5t113.5 -242.5q0 -100 -64.5 -183t-174.5 -132q131 -47 206.5 -138.5t75.5 -207.5q0 -168 -127 -276.5t-323 -108.5q-193 0 -316.5 104t-123.5 272zM289 385 q0 -113 75.5 -183.5t188.5 -70.5q115 0 190.5 69.5t75.5 174.5q0 111 -80 178.5t-211 89.5q-100 -18 -169.5 -88t-69.5 -170zM326 1018q0 -94 68.5 -157.5t180.5 -82.5q92 20 148.5 83t56.5 149q0 96 -63.5 158.5t-163.5 62.5q-98 0 -162.5 -60.5t-64.5 -152.5z" />
<glyph unicode="9" horiz-adv-x="1099" d="M80 954.5q0 178.5 138 310.5t331 132q190 0 325.5 -132.5t135.5 -320.5q0 -270 -165 -520t-425 -426l-227 2q176 100 347 277.5t238 351.5q-115 -113 -278 -113q-162 0 -291 130t-129 308.5zM256 954q0 -121 85 -204.5t204 -83.5q117 0 199.5 81.5t82.5 200.5 q0 125 -81.5 214t-206.5 89q-129 0 -206 -87t-77 -210z" />
<glyph unicode=":" horiz-adv-x="487" d="M137 104q0 51 38 88t85 37q49 0 85 -35.5t36 -87.5q0 -47 -37 -83.5t-88 -38.5q-47 0 -83 35.5t-36 84.5zM137 881q0 51 37 88t86 37t85 -35t36 -86q0 -49 -37 -86t-88 -37q-47 0 -83 35t-36 84z" />
<glyph unicode=";" horiz-adv-x="489" d="M98 -266q92 168 92 342q0 82 -10 135l182 35q12 -55 13 -119q0 -240 -172 -438zM137 881q0 51 37 88t86 37t86 -36t37 -85t-37 -86t-88 -37q-49 0 -85 35t-36 84z" />
<glyph unicode="&#x3c;" horiz-adv-x="1140" d="M143 475v103l834 434v-158l-666 -322l666 -321v-164z" />
<glyph unicode="=" horiz-adv-x="1087" d="M98 254v141h893v-141h-893zM98 633v135h893v-135h-893z" />
<glyph unicode="&#x3e;" horiz-adv-x="1140" d="M164 47v160l663 321l-663 322v162l833 -426v-103z" />
<glyph unicode="?" horiz-adv-x="935" d="M176 1112v170q111 111 279 111t267 -96.5t99 -231.5q0 -88 -46 -166t-146 -190q-80 -88 -110 -150.5t-32 -155.5h-161q0 109 34.5 182.5t143.5 200.5q143 162 143 256q0 88 -55 141.5t-156 53.5q-150 0 -260 -125zM291 104q0 51 37 88t86 37t86 -35.5t37 -87.5 q0 -47 -38 -83.5t-89 -38.5q-47 0 -83 35.5t-36 84.5z" />
<glyph unicode="@" horiz-adv-x="1685" d="M78 416q0 338 227 565t549 227q324 0 538 -186t214 -487q0 -211 -107.5 -344.5t-277.5 -133.5q-203 0 -213 181q-96 -172 -271 -172q-115 0 -191.5 91t-76.5 234q0 174 104.5 300t272.5 126q59 0 116.5 -28.5t81.5 -73.5l13 90l143 -21l-70 -465q-6 -154 105 -153 q104 0 172 98t68 262q0 258 -168 417t-449 159q-270 0 -456.5 -194.5t-186.5 -485.5q0 -287 175 -463t439 -176q176 0 281 51l8 -115q-147 -41 -289 -41q-311 0 -531 211t-220 527zM616 408q0 -100 46.5 -159t125.5 -59q113 0 209 136l33 319q-25 27 -74 46.5t-88 19.5 q-104 0 -178 -87t-74 -216z" />
<glyph unicode="A" horiz-adv-x="1351" d="M43 0q25 53 145 336l441 1057h73l472 -1108q49 -113 137 -285h-217l-156 387h-555l-150 -387h-190zM436 526h447l-224 576z" />
<glyph unicode="B" horiz-adv-x="1155" d="M195 0q8 125 8 360v633q0 252 -6 383h348q184 0 296.5 -92t112.5 -242q0 -92 -56 -169.5t-148 -116.5q135 -37 217 -133.5t82 -221.5q0 -190 -134.5 -295.5t-343.5 -105.5h-376zM387 139h172q141 0 221 69.5t80 192.5q0 119 -77.5 188.5t-204.5 69.5h-191v-520zM387 797 h156q102 0 165.5 60.5t63.5 160.5t-66.5 160.5t-181.5 60.5h-137v-442z" />
<glyph unicode="C" horiz-adv-x="1302" d="M117 682q0 299 204.5 507t514.5 208q178 0 344 -62v-184q-137 86 -332 86q-236 0 -388.5 -158.5t-152.5 -392.5q0 -236 152.5 -393.5t384.5 -157.5q168 0 340 86v-180q-160 -61 -361 -61q-307 0 -506.5 198.5t-199.5 503.5z" />
<glyph unicode="D" horiz-adv-x="1419" d="M195 0q6 147 6 377v678q0 203 -6 321h401q305 0 506 -191.5t201 -492.5q0 -305 -204 -498.5t-507 -193.5h-397zM385 154h193q240 0 386 149.5t146 388.5q0 236 -149.5 384.5t-385.5 148.5h-190v-1071z" />
<glyph unicode="E" horiz-adv-x="1038" d="M195 0q2 84 4 191.5t2 142.5v706q0 195 -6 336h352q238 0 346 4l-27 -159q-96 4 -344 4h-137v-434h147q229 0 316 2v-158q-176 4 -316 4h-147v-485h201q236 0 315 2v-158q-80 2 -309 2h-397z" />
<glyph unicode="F" horiz-adv-x="1003" d="M195 0q6 152 6 356v662q0 207 -6 358h372q233 0 328 4l-29 -159q-70 4 -301 4h-180v-461h176q186 0 268 4v-162q-70 4 -268 4h-176v-262q0 -233 2 -348h-192z" />
<glyph unicode="G" horiz-adv-x="1421" d="M117 680q0 307 202.5 512t534.5 205q188 0 354 -62v-180q-147 84 -344 84q-250 0 -402.5 -154.5t-152.5 -398.5q0 -233 146.5 -394t390.5 -161q123 0 221 43v213q0 172 -4 256h190q-4 -201 -4 -381l-2 -207q-197 -78 -407 -78q-315 0 -519 194t-204 509z" />
<glyph unicode="H" horiz-adv-x="1503" d="M195 0q6 127 6 305v723q0 219 -6 348h194q-4 -127 -4 -452v-129h733v252q0 162 -4 329h195q-6 -188 -6 -348v-772q0 -137 6 -256h-195q4 156 4 291v354h-733v-354q0 -205 4 -291h-194z" />
<glyph unicode="I" horiz-adv-x="585" d="M195 0q6 139 6 336v670q0 217 -6 370h196q-4 -61 -4 -370v-670q0 -238 4 -336h-196z" />
<glyph unicode="J" horiz-adv-x="776" d="M63 2v166q63 -33 150 -33q98 0 150.5 65.5t52.5 184.5v643q0 252 -4 348h190q-2 -168 -2 -348v-663q0 -178 -98.5 -281.5t-276.5 -103.5h-6q-70 0 -156 22z" />
<glyph unicode="K" horiz-adv-x="1247" d="M195 0q6 141 6 334v708q0 55 -1 110.5t-3 119t-2 104.5h194q-2 -111 -2 -334v-335l361 440q104 125 178 229h207q-61 -80 -99 -125l-452 -540l460 -527q12 -12 69.5 -77.5t96.5 -106.5h-250q-39 53 -133 164l-438 510v-338q0 -215 2 -336h-194z" />
<glyph unicode="L" horiz-adv-x="983" d="M195 0q6 92 6 377v622q0 221 -6 377h192q0 -41 -1 -96t-1 -76v-1050h250q152 0 291 4v-162q-86 4 -301 4h-430z" />
<glyph unicode="M" horiz-adv-x="1705" d="M131 0q2 25 14.5 166t14.5 180l76 1040h122l508 -937l502 937h123l61 -1062q10 -211 23 -324h-195q0 117 -10 297l-35 733l-446 -846h-53l-451 846l-47 -725q-10 -145 -14 -305h-193z" />
<glyph unicode="N" horiz-adv-x="1536" d="M195 0q6 131 6 289v751q0 168 -6 353h90l872 -1033v672q0 246 -6 344h190q-8 -106 -8 -334v-761q0 -197 2 -285h-92l-866 1036v-751q0 -158 6 -281h-188z" />
<glyph unicode="O" horiz-adv-x="1640" d="M117 688q0 301 201.5 505t500.5 204t502 -205t203 -506q0 -303 -203 -506t-500 -203q-301 0 -502.5 203t-201.5 508zM309 686q0 -242 144.5 -399.5t367.5 -157.5q221 0 364.5 158.5t143.5 398.5q0 238 -144.5 397.5t-365.5 159.5q-217 0 -363.5 -157.5t-146.5 -399.5z " />
<glyph unicode="P" horiz-adv-x="1097" d="M195 0q6 135 6 356v719q0 184 -6 301h323q229 0 358.5 -117.5t129.5 -316.5q0 -190 -131.5 -311t-364.5 -121h-125v-170q0 -248 4 -340h-194zM385 657h119q139 0 224 78t85 211q0 129 -83 206t-226 77h-119v-572z" />
<glyph unicode="Q" horiz-adv-x="1640" d="M117 688q0 301 201.5 505t500.5 204t502 -205t203 -506q0 -229 -121 -407.5t-320 -253.5q219 -197 469 -197q68 0 129 14l21 -135q-90 -24 -175 -24h-7q-190 0 -338 68.5t-301 228.5q-18 -2 -60 -3q-301 0 -502.5 203t-201.5 508zM309 686q0 -242 144.5 -399.5 t367.5 -157.5q221 0 364.5 158.5t143.5 398.5q0 238 -144.5 397.5t-365.5 159.5q-217 0 -363.5 -157.5t-146.5 -399.5z" />
<glyph unicode="R" horiz-adv-x="1226" d="M195 0q6 90 6 362v687q0 250 -6 327h327q207 0 342 -101t135 -294q0 -270 -276 -360l197 -289q90 -131 256 -332h-236l-387 567h-170v-211q0 -180 4 -356h-192zM383 711h137q121 0 206 68.5t85 189.5q0 123 -84 190.5t-211 67.5h-133v-516z" />
<glyph unicode="S" horiz-adv-x="1050" d="M123 47l39 176q125 -104 303 -104q115 0 184.5 57t69.5 160q0 147 -227 278q-72 43 -115 73t-98.5 81t-82 114.5t-26.5 139.5q0 172 113.5 274.5t300.5 102.5q158 0 276 -53v-170q-101 77 -264 77h-4q-104 0 -168 -53t-64 -147q0 -141 226 -267q184 -109 259 -200.5 t75 -227.5q0 -170 -124 -277.5t-325 -107.5q-178 0 -348 74z" />
<glyph unicode="T" horiz-adv-x="1218" d="M68 1219v159q47 0 153.5 -1t163.5 -1h461q236 0 315 2l-18 -159q-180 4 -305 4h-138q-2 -70 -2 -258v-615q0 -221 7 -350h-195q4 94 4 350v615q0 184 -2 258h-139q-219 0 -305 -4z" />
<glyph unicode="U" horiz-adv-x="1421" d="M174 1376h195q-6 -94 -7 -346v-500q0 -193 95.5 -294t255.5 -101q164 0 256 104.5t92 295.5v495q0 258 -2 346h190q-2 -100 -2 -348v-500q0 -266 -144.5 -407t-389.5 -141q-252 0 -393.5 146t-141.5 402v500q0 168 -4 348z" />
<glyph unicode="V" horiz-adv-x="1351" d="M41 1376h211l430 -1085l430 1085h199q-8 -16 -59.5 -126.5t-55.5 -116.5l-489 -1158h-62l-479 1135q-80 184 -125 266z" />
<glyph unicode="W" horiz-adv-x="1953" d="M41 1376h201l446 -1097l207 524l-252 573h182l170 -381l154 381h178l-250 -573l197 -524l446 1097h193q-20 -49 -123 -278l-475 -1102h-62l-274 635l-277 -635h-63l-475 1091q-20 45 -41 93.5t-44.5 105.5t-37.5 90z" />
<glyph unicode="X" horiz-adv-x="1210" d="M45 0q123 168 199 285l260 405l-250 400q-74 115 -191 286h224q53 -96 116 -198l209 -340l222 356q53 92 110 182h209q-94 -123 -195 -280l-251 -391l254 -406q63 -100 204 -299h-223q-82 139 -113 188l-229 365l-250 -397q-8 -14 -30.5 -51t-40 -67t-23.5 -38h-211z" />
<glyph unicode="Y" horiz-adv-x="1234" d="M41 1376h219q18 -39 98 -182l267 -440l256 434q25 43 106 188h207q-14 -25 -71.5 -112.5t-86.5 -137.5l-325 -530v-274q0 -182 6 -322h-197q6 283 6 324v272l-325 530q-123 197 -160 250z" />
<glyph unicode="Z" horiz-adv-x="1173" d="M92 0q12 23 69.5 121t90.5 153l536 949h-335q-246 0 -322 -4l-16 159q96 -2 360 -2h602l-706 -1222h411q227 0 303 2v-158q-78 2 -305 2h-688z" />
<glyph unicode="[" horiz-adv-x="681" d="M164 -424q4 127 4 225v1522q0 98 -4 225h311q98 0 137 2v-135q-39 2 -129 2h-161v-1710h163q92 0 127 4v-137q-25 2 -120 2h-328z" />
<glyph unicode="\" horiz-adv-x="692" d="M35 1436h170l454 -1514h-172z" />
<glyph unicode="]" horiz-adv-x="681" d="M70 -289q35 -4 127 -4h161v1710h-159q-90 0 -129 -2v135q39 -2 137 -2h311q-4 -127 -4 -225v-1522q0 -98 4 -225h-328q-96 0 -120 -2v137z" />
<glyph unicode="^" d="M117 815l377 600h86l376 -600h-163l-261 447l-256 -447h-159z" />
<glyph unicode="_" horiz-adv-x="950" d="M168 -193h614v-14h-614v14z" />
<glyph unicode="a" d="M96 274q0 139 102.5 217t284.5 89q168 8 234 8v41q0 94 -69.5 148t-172.5 54q-139 0 -258 -69l-57 123q139 86 338 86q176 0 283.5 -97.5t107.5 -271.5v-301q0 -182 33 -301h-181l-12 111q-131 -131 -315 -131q-133 0 -225.5 81.5t-92.5 212.5zM276 276 q0 -76 45.5 -119.5t120.5 -43.5q162 0 275 116v232l-193 -6q-125 -4 -186.5 -45.5t-61.5 -133.5z" />
<glyph unicode="b" horiz-adv-x="1232" d="M78 1384l45 109h242q-6 -104 -7 -176v-434q121 90 291 90q211 0 345 -138.5t134 -351.5q0 -221 -136 -357t-349 -136q-86 0 -170 31.5t-137 78.5l-96 -100h-58v1384h-104zM358 246q109 -104 265 -105q154 0 240.5 93.5t86.5 247t-87 247.5t-236 94q-172 0 -269 -92v-485z " />
<glyph unicode="c" horiz-adv-x="1044" d="M104 469q0 215 147.5 357.5t375.5 142.5q143 0 274 -62v-170q-111 78 -258 78q-166 0 -262 -97t-96 -249t94 -242t266 -90q139 0 258 82v-168q-99 -67 -269 -67h-5q-231 0 -378 137t-147 348z" />
<glyph unicode="d" horiz-adv-x="1251" d="M104 483q0 221 135.5 354.5t350.5 133.5q80 0 159.5 -26.5t124.5 -65.5v460h-108l51 109h238q-6 -80 -6 -186v-1026q0 -37 1 -120t1 -116h-88l-68 98q-130 -108 -314 -108h-3q-211 0 -342.5 140t-131.5 353zM283 479.5q0 -153.5 83 -247t232 -93.5q76 0 152.5 28 t123.5 73l3 477q-111 104 -269 104q-152 0 -238.5 -94t-86.5 -247.5z" />
<glyph unicode="e" d="M104 485q0 201 123 343.5t324 142.5q217 0 322.5 -129t105.5 -305q0 -61 -6 -91h-690q14 -315 323 -315q145 0 320 94v-143q-133 -96 -328 -96q-223 0 -358.5 130.5t-135.5 368.5zM281 565h528q-4 266 -256 266q-131 0 -198.5 -78.5t-73.5 -187.5z" />
<glyph unicode="f" horiz-adv-x="698" d="M78 809v139h149v146q0 180 84 283.5t242 103.5q66 0 174 -25l-22 -143q-41 24 -111 24h-6q-96 0 -140.5 -66.5t-44.5 -170.5v-152h238l-27 -139h-211v-610q0 -143 3 -199h-183q4 176 4 199v610h-149z" />
<glyph unicode="g" horiz-adv-x="1239" d="M104 479q0 219 134.5 354.5t341.5 135.5q88 0 168.5 -29t123.5 -68l5 76h165q-4 -90 -4 -139v-799q0 -264 -138 -373.5t-386 -109.5q-188 0 -350 49l41 135q199 -41 313 -41q170 0 261 77t91 259v76q-131 -92 -292 -92q-213 0 -343.5 138t-130.5 351zM283 479 q0 -154 83 -247t228 -93q76 0 152.5 28t121.5 71l2 479q-115 104 -264 104q-154 0 -238.5 -93t-84.5 -249z" />
<glyph unicode="h" horiz-adv-x="1181" d="M78 1364l43 109h221q-4 -49 -4 -201v-461q113 154 334 154q164 0 262 -104.5t98 -299.5v-338q0 -172 4 -223h-182q2 37 2 231v347q0 121 -66.5 180t-175.5 59q-84 0 -158.5 -49t-117.5 -129v-446q0 -90 4 -193h-186q6 80 6 195v1169h-84z" />
<glyph unicode="i" horiz-adv-x="583" d="M186 1257.5q0 45.5 32 77t77 31.5t78 -31.5t33 -77t-33 -77t-78 -31.5t-77 31.5t-32 77zM199 0q6 47 6 201v542q0 156 -6 205h188q-6 -49 -6 -203v-544q0 -158 6 -201h-188z" />
<glyph unicode="j" horiz-adv-x="565" d="M-86 -354h117q174 0 174 278v819q0 158 -4 205h186q-4 -47 -4 -203v-829q0 -190 -79 -301t-251 -111h-139v142zM150 1257.5q0 45.5 31.5 77t76.5 31.5t78 -31.5t33 -77t-33 -77t-78 -31.5t-76.5 31.5t-31.5 77z" />
<glyph unicode="k" horiz-adv-x="1083" d="M78 1364l41 109h229q-6 -55 -6 -199v-746l418 420h223q-98 -80 -166 -143l-291 -281l389 -407q86 -90 115 -117h-239l-449 475v-282q0 -74 4 -193h-182q4 111 4 205v1159h-90z" />
<glyph unicode="l" horiz-adv-x="546" d="M78 1364l43 109h229q-6 -39 -6 -179v-1093q0 -158 4 -201h-182q4 86 4 201v1163h-92z" />
<glyph unicode="m" horiz-adv-x="1665" d="M80 838l43 110h205l10 -139q43 66 120 111t158 45q207 0 281 -170q51 78 131 124t166 46q143 0 232.5 -102.5t89.5 -295.5v-377q0 -80 4 -190h-183q2 78 2 221v357q0 239 -179 239h-1q-133 0 -233 -178v-449q0 -76 4 -190h-180q2 70 2 221v354q0 242 -181 242 q-133 0 -233 -178v-414q0 -162 2 -225h-180q2 86 2 195v643h-82z" />
<glyph unicode="n" horiz-adv-x="1175" d="M80 838l43 110h203l10 -139q111 156 336 156q164 0 260 -102.5t96 -303.5v-336q0 -162 4 -223h-182q4 82 4 231v347q0 121 -66.5 180t-175.5 59q-176 0 -276 -178v-408q0 -162 4 -231h-182q4 147 4 231v607h-82z" />
<glyph unicode="o" horiz-adv-x="1150" d="M104 471q0 207 137.5 351.5t333.5 144.5q201 0 337.5 -145.5t136.5 -350.5t-136.5 -346t-337 -141t-336 141t-135.5 346zM281 471q0 -141 84 -240.5t210 -99.5q131 0 213 98.5t82 241.5q0 150 -84 246t-211 96q-129 0 -211.5 -107.5t-82.5 -234.5z" />
<glyph unicode="p" horiz-adv-x="1230" d="M80 840l43 108h242l-11 -90q115 115 295 115q211 0 345 -138.5t134 -351.5q0 -221 -137 -357t-350 -136q-141 0 -285 88v-541l-178 -37q4 135 4 205v1135h-102zM356 246q111 -104 267 -105q154 0 240.5 93.5t86.5 247t-87 247.5t-236 94q-160 0 -271 -110v-467z" />
<glyph unicode="q" horiz-adv-x="1251" d="M104 483q0 219 134.5 352.5t343.5 133.5q90 0 169.5 -27t122.5 -63v69h181q-4 -57 -4 -192v-1006q0 -162 6 -248h-185q4 147 5 246l-3 336q-131 -94 -296 -94q-211 0 -342.5 140t-131.5 353zM283 479.5q0 -155.5 83 -248t230 -92.5q78 0 154.5 28t123.5 73l3 477 q-115 104 -269 104q-156 0 -240.5 -93t-84.5 -248.5z" />
<glyph unicode="r" horiz-adv-x="755" d="M80 840l43 108h190l21 -147q51 72 130 120t152 48q57 0 101 -19l-35 -162q-49 12 -98 13q-61 0 -129 -38t-111 -106v-454q0 -25 6 -203h-188q6 111 6 207v633h-88z" />
<glyph unicode="s" horiz-adv-x="829" d="M98 39l31 158q113 -88 244 -88q80 0 130 35.5t50 99.5q0 29 -13.5 52t-49 48t-54 35t-71.5 39q-231 115 -232 284q0 119 86 192t236 73q106 0 233 -41v-154q-111 66 -221 66q-76 0 -120 -33t-44 -90q0 -29 13.5 -52.5t50 -48t53 -34t69.5 -35.5q104 -53 170 -120t66 -171 q0 -129 -92 -203t-252 -74q-164 1 -283 62z" />
<glyph unicode="t" horiz-adv-x="761" d="M68 809v139h153v82q0 104 -2 148l180 28q-2 -57 -2 -178v-80h273l-25 -139h-248v-467q0 -111 34 -163t116 -52q49 0 98 27l29 -131q-86 -41 -180 -41q-272 0 -273 317v510h-153z" />
<glyph unicode="u" horiz-adv-x="1173" d="M80 838l45 110h221q-6 -49 -6 -213v-327q0 -279 211 -279q72 0 135.5 48t99.5 132v410q0 158 -4 229h185q-4 -68 -4 -223v-532q0 -129 16 -193h-152l-32 127q-98 -143 -285 -143q-346 0 -346 409v445h-84z" />
<glyph unicode="v" horiz-adv-x="991" d="M37 948h205l67 -174l197 -520l209 549q6 16 25.5 73.5t25.5 71.5h186q-53 -111 -90 -194l-327 -774h-74l-332 776q-37 88 -92 192z" />
<glyph unicode="w" horiz-adv-x="1468" d="M35 948h196q20 -84 64 -198l170 -486l225 684h105l237 -694l178 555q31 88 43 139h181l-68 -172l-283 -794h-84l-262 731l-254 -731h-90l-274 751q-14 43 -44 114.5t-40 100.5z" />
<glyph unicode="x" horiz-adv-x="940" d="M41 0q72 98 143 203l187 270l-187 283q-66 111 -137 192h207l225 -354l223 354h193q-20 -25 -133 -192l-187 -279l209 -313q92 -137 111 -164h-193l-235 354l-231 -354h-195z" />
<glyph unicode="y" horiz-adv-x="1038" d="M37 948h207l67 -178l215 -555l217 545q23 57 64 188h194q-18 -39 -49.5 -112.5l-40.5 -94.5l-385 -884q-59 -139 -137 -198.5t-196 -59.5h-89l15 131q113 0 160 27.5t92 125.5l71 150l-292 663q-66 154 -113 252z" />
<glyph unicode="z" horiz-adv-x="892" d="M76 0l483 801h-278q-76 0 -166 -4l-6 155q51 -4 180 -4h528l-473 -801h293q76 0 182 5v-154q-43 2 -135 2h-608z" />
<glyph unicode="{" horiz-adv-x="724" d="M74 500v131q182 16 182 227q0 29 -4 169t-4 165q0 178 105.5 265t293.5 91l10 -139q-125 -4 -186 -63.5t-61 -198.5q0 -25 4 -160t4 -162q0 -201 -166 -260q166 -59 166 -260q0 -25 -4 -161t-4 -162q0 -137 61 -196.5t186 -64.5l-10 -139q-188 4 -293.5 91t-105.5 266 q0 31 4 174t4 170q0 201 -182 217z" />
<glyph unicode="|" horiz-adv-x="485" d="M170 -442v2003h147v-2003h-147z" />
<glyph unicode="}" horiz-adv-x="724" d="M68 -281q127 4 187 64.5t60 198.5q0 25 -4 161t-4 162q0 201 166 260q-166 59 -166 260q0 27 4 162t4 160q0 139 -60 198.5t-187 63.5l10 139q399 -6 399 -356q0 -31 -4 -174.5t-4 -169.5q0 -201 184 -217v-131q-184 -16 -184 -228q0 -29 4 -169t4 -166 q0 -178 -105.5 -264.5t-293.5 -90.5z" />
<glyph unicode="~" horiz-adv-x="940" d="M178 510q4 80 49 138.5t123 58.5q57 0 132 -48.5t106 -48.5q61 0 71 86h105q-4 -80 -47 -138t-121 -58q-57 0 -134 46t-106 46q-61 0 -67 -82h-111z" />
<glyph unicode="&#xa1;" horiz-adv-x="552" d="M154 854q0 49 36.5 85t88.5 38q47 0 82.5 -35t35.5 -84q0 -51 -36.5 -88t-86 -37t-85 35t-35.5 86zM178 -416q4 49 4 230v497q0 180 -4 232h189q-6 -68 -7 -232v-497q1 -173 7 -230h-189z" />
<glyph unicode="&#xa2;" horiz-adv-x="1085" d="M176 569q0 184 108.5 313.5t282.5 157.5v193h113v-184q109 -8 182 -35v-158q-72 45 -172 47q-143 2 -239.5 -86t-96.5 -242q0 -147 91.5 -235t240.5 -86q100 0 178 45l15 -154q-94 -35 -201 -36v-177h-111v181q-180 25 -285.5 153.5t-105.5 302.5z" />
<glyph unicode="&#xa3;" horiz-adv-x="1085" d="M90 0v135q246 43 248 510h-164v119h170q10 610 455 610q74 0 196 -31l-22 -147q-61 31 -156 31q-270 0 -291 -348l-4 -115h324l-23 -119h-307q-2 -182 -52 -312t-136 -196q135 4 266 4h162q94 0 209 4v-147q-57 2 -193 2h-682z" />
<glyph unicode="&#xa4;" horiz-adv-x="1085" d="M47 1063l90 88l150 -150q119 88 258 89q123 0 250 -89l145 146l90 -90l-143 -144q88 -127 88 -251q0 -137 -90 -248l147 -148l-90 -92l-149 148q-121 -84 -250 -84q-139 0 -254 84l-144 -144l-92 90l146 148q-86 111 -86 246q0 129 86 251zM260 664q0 -121 82 -206 t201 -85q117 0 199.5 86t82.5 205q0 117 -81.5 202.5t-200.5 85.5t-201 -84.5t-82 -203.5z" />
<glyph unicode="&#xa5;" horiz-adv-x="1085" d="M51 1358h205q10 -20 82 -154l207 -395l213 383q74 139 84 166h192l-121 -209l-288 -485h295v-97h-289v-155h289v-93h-289v-104q0 -6 6 -215h-195q0 12 3.5 90t3.5 123v106h-287v93h287v155h-287v97h299l-305 516q-57 94 -105 178z" />
<glyph unicode="&#xa6;" horiz-adv-x="485" d="M170 289h147v-731h-147v731zM170 829v732h147v-732h-147z" />
<glyph unicode="&#xa7;" horiz-adv-x="1064" d="M125 653q0 172 199 273q-53 39 -89 100t-36 127q0 137 96 219t266 82q160 0 297 -55v-144q-100 68 -270 68q-96 0 -151.5 -44t-55.5 -122q0 -70 54 -119t159 -96q78 -35 128 -61.5t109.5 -70.5t89 -102.5t29.5 -129.5q0 -152 -170 -271q111 -92 111 -225 q0 -154 -109.5 -236t-296.5 -82q-170 0 -333 72l32 152q119 -90 295 -90q111 0 173.5 45t62.5 131q0 127 -230 227q-78 35 -108.5 49.5t-91 50t-87 66.5t-50 80t-23.5 106zM283 692q0 -61 50 -115.5t100 -82t132 -64.5q92 -41 125 -59q98 78 98 178q0 51 -21.5 91t-70.5 75 t-87 55.5t-111 52.5q-92 45 -95 45q-120 -59 -120 -176z" />
<glyph unicode="&#xa9;" horiz-adv-x="1556" d="M117 664q0 274 192.5 469.5t466.5 195.5q276 0 470 -195.5t194 -469.5q0 -279 -191.5 -474.5t-472.5 -195.5q-276 0 -467.5 195.5t-191.5 474.5zM215 664q0 -246 162 -416t401.5 -170t401 170t161.5 416q0 242 -163.5 409.5t-399 167.5t-399.5 -166.5t-164 -410.5z M453 657.5q0 159.5 105.5 271t260.5 111.5q76 0 166 -28v-115q-59 35 -158 35q-109 0 -180.5 -77t-71.5 -191q0 -121 71 -197t177 -76q78 0 160 41l16 -117q-92 -33 -188 -32q-154 0 -256 107.5t-102 267z" />
<glyph unicode="&#xaa;" horiz-adv-x="548" d="M51 1133q0 156 213 161l129 6v27q0 57 -39 88t-98 31q-78 0 -143 -35l-23 59q90 45 180 46q213 0 213 -197v-172q0 -119 9 -162h-74l-21 66q-86 -80 -178 -80q-74 0 -121 44t-47 118zM141 1137q0 -45 28 -73t73 -28q90 0 151 66v141l-106 -4q-70 -4 -108 -25.5t-38 -76.5 z" />
<glyph unicode="&#xab;" horiz-adv-x="1232" d="M98 455v20l486 397v-155l-303 -252l307 -248v-158zM625 455v20l485 397v-155l-303 -252l305 -248v-158z" />
<glyph unicode="&#xac;" horiz-adv-x="1087" d="M61 535v143h918v-520h-174v377h-744z" />
<glyph unicode="&#xad;" horiz-adv-x="702" d="M92 418v157h518v-157h-518z" />
<glyph unicode="&#xae;" horiz-adv-x="1021" d="M133 1065q0 160 109.5 270.5t267.5 110.5q156 0 267.5 -111.5t111.5 -269.5t-109.5 -268.5t-269.5 -110.5t-268.5 109.5t-108.5 269.5zM190 1065q0 -139 92.5 -234.5t227.5 -95.5q137 0 228 96.5t91 233.5q0 141 -91 237.5t-228 96.5t-228.5 -96.5t-91.5 -237.5zM385 872 q2 31 2 82v228v88h107q68 0 104.5 -30t36.5 -79t-30 -79.5t-73 -34.5l127 -175h-63l-109 170h-47v-170h-55zM440 1079h47q99 0 99 78q0 72 -99 72h-47v-150z" />
<glyph unicode="&#xb0;" horiz-adv-x="714" d="M80 1102q0 115 81 195.5t197.5 80.5t195.5 -78.5t79 -193.5q0 -113 -83 -198t-200 -85t-193.5 81t-76.5 198zM186 1102q0 -76 48 -126t120 -50q74 0 122 52t48 128q0 70 -49 120t-117 50q-72 0 -122 -49t-50 -125z" />
<glyph unicode="&#xb1;" horiz-adv-x="1087" d="M98 -2v145h893v-145h-893zM98 639v139h367v389h158v-389h368v-139h-368v-391h-158v391h-367z" />
<glyph unicode="&#xb2;" horiz-adv-x="698" d="M82 887v106q14 14 101 97.5t108 103.5q143 143 143 227q0 61 -39 100.5t-104 39.5q-90 0 -174 -58l-17 119q106 55 207 55q127 0 200 -61.5t73 -171.5q0 -131 -183 -297q-25 -25 -86 -77t-82 -73h213q63 0 158 4v-114h-518z" />
<glyph unicode="&#xb3;" horiz-adv-x="700" d="M92 915l12 109q63 -39 175 -39q76 0 118.5 34t42.5 97q0 59 -47 94t-133 35q-23 0 -51 -4v98l39 -2q80 0 125 34t45 93q0 53 -36 81t-97 28q-96 0 -166 -45l-13 110q74 41 185 41q123 0 195.5 -50t72.5 -144q0 -66 -51 -122t-135 -69q90 -8 150.5 -64t60.5 -128 q0 -100 -80 -160.5t-211 -60.5q-115 0 -201 34z" />
<glyph unicode="&#xb5;" horiz-adv-x="1241" d="M80 838l45 108h217q0 -33 -2 -100.5t-2 -100.5v-219q0 -397 264 -397q88 0 164 57.5t92 139.5v393q0 156 -4 227h184q-4 -68 -4 -221v-532q0 -100 10 -193h-143l-35 139q-111 -156 -282 -155q-100 0 -162 36.5t-117 129.5q16 -131 17 -232v-250q0 -78 6 -190h-170 q4 49 4 200v1160h-82z" />
<glyph unicode="&#xb6;" horiz-adv-x="1208" d="M109 907q0 205 138 337t355 132h469v-1616h-147v1497h-148v-1151q0 -238 2 -348h-182q0 25 1 77t1 85v520q-223 10 -356 134t-133 333z" />
<glyph unicode="&#xb7;" horiz-adv-x="514" d="M135 502q0 51 37 88t86 37t85 -35t36 -86q0 -49 -37 -86t-88 -37q-47 0 -83 35t-36 84z" />
<glyph unicode="&#xb9;" horiz-adv-x="624" d="M88 1550q133 51 285 123h71l-2 -164v-462q0 -141 2 -162h-141q0 25 2 100.5t2 101.5v447l-198 -80z" />
<glyph unicode="&#xba;" horiz-adv-x="673" d="M55 1225q0 121 82 206t201 85t199.5 -84t80.5 -207q0 -121 -79.5 -205t-200.5 -84t-202 85t-81 204zM154 1225q0 -88 52 -148.5t132 -60.5t130 59.5t50 149.5t-51 149.5t-129 59.5q-80 0 -132 -65.5t-52 -143.5z" />
<glyph unicode="&#xbb;" horiz-adv-x="1232" d="M119 713v159l489 -395v-22l-485 -396v156l303 252zM645 713v159l488 -395v-22l-484 -396v156l301 252z" />
<glyph unicode="&#xbc;" horiz-adv-x="1658" d="M88 1245q147 59 285 123h71q0 -16 -1 -75.5t-1 -86.5v-463q0 -141 2 -161h-141q0 23 2 99.5t2 102.5v445l-198 -78zM281 0l901 1362h133l-901 -1362h-133zM901 195v67l426 522h82v-499q86 0 129 2v-92h-129v-95q0 -57 2 -100h-133v88v107h-377zM1018 287h260l6 340z" />
<glyph unicode="&#xbd;" horiz-adv-x="1654" d="M88 1255q133 51 285 123h71l-2 -164v-462q0 -141 2 -162h-141q0 25 2 100.5t2 102.5v446l-198 -80zM262 0l899 1362h133l-901 -1362h-131zM1038 0v106q193 182 209 201q143 143 144 228q0 61 -39 100t-105 39q-90 0 -172 -58l-18 119q106 55 209 56q127 0 199.5 -62.5 t72.5 -173.5q0 -127 -184 -295q-25 -25 -86.5 -77t-81.5 -72h213q63 0 157 4v-115h-518z" />
<glyph unicode="&#xbe;" horiz-adv-x="1650" d="M92 623l12 108q63 -39 175 -39q76 0 118.5 34t42.5 97q0 59 -47 94t-133 35q-23 0 -51 -4v99l39 -3q80 0 125 34t45 93q0 53 -36 81t-97 28q-96 0 -166 -45l-13 111q74 41 185 40q123 0 195.5 -50t72.5 -144q0 -66 -51 -122t-135 -69q90 -8 150.5 -64t60.5 -128 q0 -100 -80 -160.5t-211 -60.5q-115 0 -201 35zM332 0l899 1362h133l-899 -1362h-133zM893 195v67l426 522h84v-499q86 0 127 2v-92h-32.5h-46.5h-48v-95q0 -57 2 -100h-135v98v97h-377zM1010 287h260l6 340z" />
<glyph unicode="&#xbf;" horiz-adv-x="935" d="M176 -106q0 88 46 165.5t147 188.5q80 90 109.5 152.5t31.5 154.5h162q0 -111 -35 -184.5t-143 -198.5q-143 -162 -144 -258q0 -86 55.5 -139.5t155.5 -53.5q152 0 260 123v-168q-111 -111 -278.5 -110.5t-267 96.5t-99.5 232zM461 850q0 49 38 86t89 37q47 0 83 -35 t36 -84q0 -51 -37 -88t-86 -37t-86 36t-37 85z" />
<glyph unicode="&#xc0;" horiz-adv-x="1351" d="M43 0q25 53 145 336l441 1057h73l472 -1108q49 -113 137 -285h-217l-156 387h-555l-150 -387h-190zM436 526h447l-224 576zM438 1778h187l166 -291h-148z" />
<glyph unicode="&#xc1;" horiz-adv-x="1351" d="M43 0q25 53 145 336l441 1057h73l472 -1108q49 -113 137 -285h-217l-156 387h-555l-150 -387h-190zM436 526h447l-224 576zM539 1487l166 291h186l-205 -291h-147z" />
<glyph unicode="&#xc2;" horiz-adv-x="1351" d="M43 0q25 53 145 336l441 1057h73l472 -1108q49 -113 137 -285h-217l-156 387h-555l-150 -387h-190zM393 1470l230 293h79l230 -293h-135l-135 185l-136 -185h-133zM436 526h447l-224 576z" />
<glyph unicode="&#xc3;" horiz-adv-x="1351" d="M43 0q25 53 145 336l441 1057h73l472 -1108q49 -113 137 -285h-217l-156 387h-555l-150 -387h-190zM371 1513q4 78 50 136.5t124 58.5q57 0 132 -47t105 -47q63 0 70 84h104q-4 -80 -46 -138.5t-119 -58.5q-57 0 -134 46t-108 46q-57 0 -68 -80h-110zM436 526h447 l-224 576z" />
<glyph unicode="&#xc4;" horiz-adv-x="1351" d="M43 0q25 53 145 336l441 1057h73l472 -1108q49 -113 137 -285h-217l-156 387h-555l-150 -387h-190zM365 1644.5q0 45.5 31.5 77t76.5 31.5t78 -31.5t33 -77t-33 -77t-78 -31.5t-76.5 31.5t-31.5 77zM436 526h447l-224 576zM748 1644.5q0 45.5 30.5 77t75.5 31.5t78 -31.5 t33 -77t-33 -77t-78 -31.5t-75.5 31.5t-30.5 77z" />
<glyph unicode="&#xc5;" horiz-adv-x="1351" d="M43 0q25 53 145 336l441 1057h73l472 -1108q49 -113 137 -285h-217l-156 387h-555l-150 -387h-190zM436 526h447l-224 576zM473 1632q0 78 55.5 127t137.5 49t137 -50t55 -126q0 -74 -54 -125t-138 -51q-82 0 -137.5 50t-55.5 126zM569 1634q0 -41 26 -73.5t71 -32.5 t71.5 28.5t26.5 75.5q0 43 -27.5 73t-70.5 30q-41 0 -69 -28t-28 -73z" />
<glyph unicode="&#xc6;" horiz-adv-x="1765" d="M43 0q190 332 209 367l524 1009h414q223 0 336 4l-17 -159q-86 4 -319 4h-229l79 -469h224q195 0 272 4v-158q-76 2 -258 2h-207l74 -450h219q197 0 268 6v-164q-39 0 -120.5 2t-125.5 2h-385l-63 391h-489l-197 -391h-209zM516 532h393l-96 609z" />
<glyph unicode="&#xc7;" horiz-adv-x="1302" d="M117 682q0 299 204.5 507t514.5 208q178 0 344 -62v-184q-137 86 -332 86q-236 0 -388.5 -158.5t-152.5 -392.5q0 -236 152.5 -393.5t384.5 -157.5q168 0 340 86v-180q-152 -57 -342 -61l-33 -66q78 -14 120 -58t42 -112q0 -82 -58.5 -132t-162.5 -50q-74 0 -129 22 l10 90q57 -18 102 -18q51 0 82 23.5t31 64.5q0 90 -139 90q-23 0 -33 -2l71 152q-279 27 -453.5 220t-174.5 478z" />
<glyph unicode="&#xc8;" horiz-adv-x="1038" d="M195 0q2 84 4 191.5t2 142.5v706q0 195 -6 336h352q238 0 346 4l-27 -159q-96 4 -344 4h-137v-434h147q229 0 316 2v-158q-176 4 -316 4h-147v-485h201q236 0 315 2v-158q-80 2 -309 2h-397zM307 1778h187l165 -291h-147z" />
<glyph unicode="&#xc9;" horiz-adv-x="1038" d="M195 0q2 84 4 191.5t2 142.5v706q0 195 -6 336h352q238 0 346 4l-27 -159q-96 4 -344 4h-137v-434h147q229 0 316 2v-158q-176 4 -316 4h-147v-485h201q236 0 315 2v-158q-80 2 -309 2h-397zM408 1487l165 291h187l-205 -291h-147z" />
<glyph unicode="&#xca;" horiz-adv-x="1038" d="M195 0q2 84 4 191.5t2 142.5v706q0 195 -6 336h352q238 0 346 4l-27 -159q-96 4 -344 4h-137v-434h147q229 0 316 2v-158q-176 4 -316 4h-147v-485h201q236 0 315 2v-158q-80 2 -309 2h-397zM260 1470l229 293h80l230 -293h-135l-136 185l-135 -185h-133z" />
<glyph unicode="&#xcb;" horiz-adv-x="1038" d="M195 0q2 84 4 191.5t2 142.5v706q0 195 -6 336h352q238 0 346 4l-27 -159q-96 4 -344 4h-137v-434h147q229 0 316 2v-158q-176 4 -316 4h-147v-485h201q236 0 315 2v-158q-80 2 -309 2h-397zM233 1644.5q0 45.5 32 77t77 31.5t78 -31.5t33 -77t-33 -77t-78 -31.5 t-77 31.5t-32 77zM616 1644.5q0 45.5 31 77t76 31.5t78 -31.5t33 -77t-33 -77t-78 -31.5t-76 31.5t-31 77z" />
<glyph unicode="&#xcc;" horiz-adv-x="585" d="M68 1778h186l166 -291h-148zM195 0q6 139 6 336v670q0 217 -6 370h196q-4 -61 -4 -370v-670q0 -238 4 -336h-196z" />
<glyph unicode="&#xcd;" horiz-adv-x="585" d="M168 1487l166 291h186l-205 -291h-147zM195 0q6 139 6 336v670q0 217 -6 370h196q-4 -61 -4 -370v-670q0 -238 4 -336h-196z" />
<glyph unicode="&#xce;" horiz-adv-x="585" d="M20 1470l230 293h80l229 -293h-135l-135 185l-135 -185h-134zM195 0q6 139 6 336v670q0 217 -6 370h196q-4 -61 -4 -370v-670q0 -238 4 -336h-196z" />
<glyph unicode="&#xcf;" horiz-adv-x="585" d="M-6 1644.5q0 45.5 31.5 77t76.5 31.5t78 -31.5t33 -77t-33 -77t-78 -31.5t-76.5 31.5t-31.5 77zM195 0q6 139 6 336v670q0 217 -6 370h196q-4 -61 -4 -370v-670q0 -238 4 -336h-196zM377 1644.5q0 45.5 30.5 77t75.5 31.5t78 -31.5t33 -77t-33 -77t-78 -31.5t-75.5 31.5 t-30.5 77z" />
<glyph unicode="&#xd0;" horiz-adv-x="1419" d="M31 621v135h170v299q0 203 -6 321h401q305 0 506 -191.5t201 -492.5q0 -305 -204 -498.5t-507 -193.5h-397q6 147 6 377v244h-170zM385 154h193q240 0 386 149.5t146 388.5q0 236 -149.5 384.5t-385.5 148.5h-190v-469h317v-135h-317v-467z" />
<glyph unicode="&#xd1;" horiz-adv-x="1536" d="M195 0q6 131 6 289v751q0 168 -6 353h90l872 -1033v672q0 246 -6 344h190q-8 -106 -8 -334v-761q0 -197 2 -285h-92l-866 1036v-751q0 -158 6 -281h-188zM479 1513q4 78 50 136.5t124 58.5q57 0 132 -47t106 -47q63 0 70 84h104q-4 -80 -46 -138.5t-120 -58.5 q-57 0 -134 46t-108 46q-57 0 -67 -80h-111z" />
<glyph unicode="&#xd2;" horiz-adv-x="1640" d="M117 688q0 301 201.5 505t500.5 204t502 -205t203 -506q0 -303 -203 -506t-500 -203q-301 0 -502.5 203t-201.5 508zM309 686q0 -242 144.5 -399.5t367.5 -157.5q221 0 364.5 158.5t143.5 398.5q0 238 -144.5 397.5t-365.5 159.5q-217 0 -363.5 -157.5t-146.5 -399.5z M594 1778h186l166 -291h-147z" />
<glyph unicode="&#xd3;" horiz-adv-x="1640" d="M117 688q0 301 201.5 505t500.5 204t502 -205t203 -506q0 -303 -203 -506t-500 -203q-301 0 -502.5 203t-201.5 508zM309 686q0 -242 144.5 -399.5t367.5 -157.5q221 0 364.5 158.5t143.5 398.5q0 238 -144.5 397.5t-365.5 159.5q-217 0 -363.5 -157.5t-146.5 -399.5z M692 1487l166 291h186l-204 -291h-148z" />
<glyph unicode="&#xd4;" horiz-adv-x="1640" d="M117 688q0 301 201.5 505t500.5 204t502 -205t203 -506q0 -303 -203 -506t-500 -203q-301 0 -502.5 203t-201.5 508zM309 686q0 -242 144.5 -399.5t367.5 -157.5q221 0 364.5 158.5t143.5 398.5q0 238 -144.5 397.5t-365.5 159.5q-217 0 -363.5 -157.5t-146.5 -399.5z M547 1470l229 293h80l229 -293h-135l-135 185l-135 -185h-133z" />
<glyph unicode="&#xd5;" horiz-adv-x="1640" d="M117 688q0 301 201.5 505t500.5 204t502 -205t203 -506q0 -303 -203 -506t-500 -203q-301 0 -502.5 203t-201.5 508zM309 686q0 -242 144.5 -399.5t367.5 -157.5q221 0 364.5 158.5t143.5 398.5q0 238 -144.5 397.5t-365.5 159.5q-217 0 -363.5 -157.5t-146.5 -399.5z M526 1513q4 78 50.5 136.5t123.5 58.5q57 0 132 -47t106 -47q63 0 70 84h104q-4 -80 -46 -138.5t-120 -58.5q-57 0 -134 46t-107 46q-57 0 -68 -80h-111z" />
<glyph unicode="&#xd6;" horiz-adv-x="1640" d="M117 688q0 301 201.5 505t500.5 204t502 -205t203 -506q0 -303 -203 -506t-500 -203q-301 0 -502.5 203t-201.5 508zM309 686q0 -242 144.5 -399.5t367.5 -157.5q221 0 364.5 158.5t143.5 398.5q0 238 -144.5 397.5t-365.5 159.5q-217 0 -363.5 -157.5t-146.5 -399.5z M520 1644.5q0 45.5 32 77t77 31.5t77.5 -31.5t32.5 -77t-32.5 -77t-77.5 -31.5t-77 31.5t-32 77zM903 1644.5q0 45.5 31 77t76 31.5t77.5 -31.5t32.5 -77t-32.5 -77t-77.5 -31.5t-76 31.5t-31 77z" />
<glyph unicode="&#xd7;" horiz-adv-x="1116" d="M137 844l96 96l324 -322l320 320l98 -96l-320 -324l324 -321l-100 -95l-320 322l-319 -320l-99 97l322 319z" />
<glyph unicode="&#xd8;" horiz-adv-x="1658" d="M117 -18l196 223q-178 197 -178 483q0 301 202 505t501 204q231 0 411 -129l113 127h162l-183 -207q201 -205 201 -502q0 -303 -201.5 -506t-500.5 -203q-250 0 -439 146l-122 -141h-162zM328 686q0 -201 102 -348l711 805q-133 100 -303 100q-217 0 -363.5 -157.5 t-146.5 -399.5zM512 248q138 -119 328 -119q221 0 365.5 158.5t144.5 398.5q0 219 -123 371z" />
<glyph unicode="&#xd9;" horiz-adv-x="1421" d="M174 1376h195q-6 -94 -7 -346v-500q0 -193 95.5 -294t255.5 -101q164 0 256 104.5t92 295.5v495q0 258 -2 346h190q-2 -100 -2 -348v-500q0 -266 -144.5 -407t-389.5 -141q-252 0 -393.5 146t-141.5 402v500q0 168 -4 348zM485 1778h187l166 -291h-148z" />
<glyph unicode="&#xda;" horiz-adv-x="1421" d="M174 1376h195q-6 -94 -7 -346v-500q0 -193 95.5 -294t255.5 -101q164 0 256 104.5t92 295.5v495q0 258 -2 346h190q-2 -100 -2 -348v-500q0 -266 -144.5 -407t-389.5 -141q-252 0 -393.5 146t-141.5 402v500q0 168 -4 348zM586 1487l166 291h186l-205 -291h-147z" />
<glyph unicode="&#xdb;" horiz-adv-x="1421" d="M174 1376h195q-6 -94 -7 -346v-500q0 -193 95.5 -294t255.5 -101q164 0 256 104.5t92 295.5v495q0 258 -2 346h190q-2 -100 -2 -348v-500q0 -266 -144.5 -407t-389.5 -141q-252 0 -393.5 146t-141.5 402v500q0 168 -4 348zM440 1470l230 293h80l229 -293h-135l-135 185 l-136 -185h-133z" />
<glyph unicode="&#xdc;" horiz-adv-x="1421" d="M174 1376h195q-6 -94 -7 -346v-500q0 -193 95.5 -294t255.5 -101q164 0 256 104.5t92 295.5v495q0 258 -2 346h190q-2 -100 -2 -348v-500q0 -266 -144.5 -407t-389.5 -141q-252 0 -393.5 146t-141.5 402v500q0 168 -4 348zM412 1644.5q0 45.5 31.5 77t76.5 31.5t78 -31.5 t33 -77t-33 -77t-78 -31.5t-76.5 31.5t-31.5 77zM795 1644.5q0 45.5 30.5 77t75.5 31.5t78 -31.5t33 -77t-33 -77t-78 -31.5t-75.5 31.5t-30.5 77z" />
<glyph unicode="&#xdd;" horiz-adv-x="1234" d="M41 1376h219q18 -39 98 -182l267 -440l256 434q25 43 106 188h207q-14 -25 -71.5 -112.5t-86.5 -137.5l-325 -530v-274q0 -182 6 -322h-197q6 283 6 324v272l-325 530q-123 197 -160 250zM489 1487l166 291h187l-205 -291h-148z" />
<glyph unicode="&#xde;" horiz-adv-x="1083" d="M195 0q6 127 6 319v709q0 225 -6 348h192q-2 -61 -2 -190v-58h121q209 0 347 -111.5t138 -318.5q0 -201 -140 -311.5t-357 -110.5h-109v-69q0 -147 2 -207h-192zM385 416h109q133 0 222 77.5t89 208.5q0 129 -87 206t-222 77h-111v-569z" />
<glyph unicode="&#xdf;" horiz-adv-x="1265" d="M199 -4q4 63 4 207v796q0 217 118.5 340t307.5 123q199 0 312.5 -108.5t113.5 -280.5q0 -119 -70 -214t-172 -120q160 -29 255 -134t95 -257q0 -174 -115.5 -272.5t-283.5 -98.5q-113 0 -221 43v166q86 -55 209 -55q100 0 162.5 61.5t62.5 157.5q0 131 -103.5 222.5 t-259.5 91.5q-47 0 -67 -5v136q16 -2 45 -2q137 0 209.5 70.5t72.5 193.5q0 121 -64.5 186.5t-178.5 65.5q-119 0 -186.5 -74t-65.5 -221v-809q0 -152 4 -209h-184z" />
<glyph unicode="&#xe0;" d="M96 274q0 139 102.5 217t284.5 89q168 8 234 8v41q0 94 -69.5 148t-172.5 54q-139 0 -258 -69l-57 123q139 86 338 86q176 0 283.5 -97.5t107.5 -271.5v-301q0 -182 33 -301h-181l-12 111q-131 -131 -315 -131q-133 0 -225.5 81.5t-92.5 212.5zM262 1389h187l165 -291 h-147zM276 276q0 -76 45.5 -119.5t120.5 -43.5q162 0 275 116v232l-193 -6q-125 -4 -186.5 -45.5t-61.5 -133.5z" />
<glyph unicode="&#xe1;" d="M96 274q0 139 102.5 217t284.5 89q168 8 234 8v41q0 94 -69.5 148t-172.5 54q-139 0 -258 -69l-57 123q139 86 338 86q176 0 283.5 -97.5t107.5 -271.5v-301q0 -182 33 -301h-181l-12 111q-131 -131 -315 -131q-133 0 -225.5 81.5t-92.5 212.5zM276 276 q0 -76 45.5 -119.5t120.5 -43.5q162 0 275 116v232l-193 -6q-125 -4 -186.5 -45.5t-61.5 -133.5zM360 1098l166 291h187l-205 -291h-148z" />
<glyph unicode="&#xe2;" d="M96 274q0 139 102.5 217t284.5 89q168 8 234 8v41q0 94 -69.5 148t-172.5 54q-139 0 -258 -69l-57 123q139 86 338 86q176 0 283.5 -97.5t107.5 -271.5v-301q0 -182 33 -301h-181l-12 111q-131 -131 -315 -131q-133 0 -225.5 81.5t-92.5 212.5zM215 1081l229 293h80 l230 -293h-136l-135 185l-135 -185h-133zM276 276q0 -76 45.5 -119.5t120.5 -43.5q162 0 275 116v232l-193 -6q-125 -4 -186.5 -45.5t-61.5 -133.5z" />
<glyph unicode="&#xe3;" d="M96 274q0 139 102.5 217t284.5 89q168 8 234 8v41q0 94 -69.5 148t-172.5 54q-139 0 -258 -69l-57 123q139 86 338 86q176 0 283.5 -97.5t107.5 -271.5v-301q0 -182 33 -301h-181l-12 111q-131 -131 -315 -131q-133 0 -225.5 81.5t-92.5 212.5zM195 1124q4 78 50 136.5 t124 58.5q57 0 131.5 -47t105.5 -47q63 0 70 84h104q-4 -80 -46 -138.5t-120 -58.5q-57 0 -134 46t-107 46q-57 0 -68 -80h-110zM276 276q0 -76 45.5 -119.5t120.5 -43.5q162 0 275 116v232l-193 -6q-125 -4 -186.5 -45.5t-61.5 -133.5z" />
<glyph unicode="&#xe4;" d="M96 274q0 139 102.5 217t284.5 89q168 8 234 8v41q0 94 -69.5 148t-172.5 54q-139 0 -258 -69l-57 123q139 86 338 86q176 0 283.5 -97.5t107.5 -271.5v-301q0 -182 33 -301h-181l-12 111q-131 -131 -315 -131q-133 0 -225.5 81.5t-92.5 212.5zM188 1255q0 45 32 77 t77 32t78 -32t33 -77t-33 -76.5t-78 -31.5t-77 31.5t-32 76.5zM276 276q0 -76 45.5 -119.5t120.5 -43.5q162 0 275 116v232l-193 -6q-125 -4 -186.5 -45.5t-61.5 -133.5zM571 1255q0 45 31 77t76 32t77.5 -32t32.5 -77t-32.5 -76.5t-77.5 -31.5t-76 31.5t-31 76.5z" />
<glyph unicode="&#xe5;" d="M96 274q0 139 102.5 217t284.5 89q168 8 234 8v41q0 94 -69.5 148t-172.5 54q-139 0 -258 -69l-57 123q139 86 338 86q176 0 283.5 -97.5t107.5 -271.5v-301q0 -182 33 -301h-181l-12 111q-131 -131 -315 -131q-133 0 -225.5 81.5t-92.5 212.5zM276 276 q0 -76 45.5 -119.5t120.5 -43.5q162 0 275 116v232l-193 -6q-125 -4 -186.5 -45.5t-61.5 -133.5zM295 1243q0 78 55.5 127t137 49t137 -50t55.5 -126q0 -74 -54.5 -125t-138.5 -51q-82 0 -137 50t-55 126zM391 1245q0 -41 25.5 -73.5t70.5 -32.5t72 28.5t27 75.5 q0 43 -28 73t-71 30q-41 0 -68.5 -28t-27.5 -73z" />
<glyph unicode="&#xe6;" horiz-adv-x="1673" d="M96 274q0 283 387 306q168 8 234 8v41q0 94 -69.5 148t-172.5 54q-139 0 -258 -69l-57 119q137 90 338 90q233 0 315 -162q119 162 340 162q217 0 322.5 -129t105.5 -305q0 -53 -4 -91h-692q14 -315 323 -315q145 0 320 94v-143q-137 -96 -330 -96q-276 0 -401 186 q-150 -193 -381 -192q-137 0 -228.5 81.5t-91.5 212.5zM276 276q0 -76 45.5 -119.5t120.5 -43.5q172 0 310 151q-37 94 -37 197l-191 -6q-125 -4 -186.5 -45.5t-61.5 -133.5zM883 565h528q-8 266 -256 266q-131 0 -198.5 -78.5t-73.5 -187.5z" />
<glyph unicode="&#xe7;" horiz-adv-x="1044" d="M104 469q0 215 147.5 357.5t375.5 142.5q143 0 274 -62v-170q-111 78 -258 78q-166 0 -262 -97t-96 -249t94 -242t266 -90q139 0 258 82v-168q-84 -59 -244 -67l-34 -70q78 -14 119.5 -58t41.5 -112q0 -82 -58 -132t-163 -50q-74 0 -129 22l10 90q57 -18 103 -18 q51 0 82 23.5t31 64.5q0 90 -140 90q-23 0 -33 -2l74 156q-205 20 -332 153t-127 328z" />
<glyph unicode="&#xe8;" d="M104 485q0 201 123 343.5t324 142.5q217 0 322.5 -129t105.5 -305q0 -61 -6 -91h-690q14 -315 323 -315q145 0 320 94v-143q-133 -96 -328 -96q-223 0 -358.5 130.5t-135.5 368.5zM281 565h528q-4 266 -256 266q-131 0 -198.5 -78.5t-73.5 -187.5zM330 1389h186l166 -291 h-147z" />
<glyph unicode="&#xe9;" d="M104 485q0 201 123 343.5t324 142.5q217 0 322.5 -129t105.5 -305q0 -61 -6 -91h-690q14 -315 323 -315q145 0 320 94v-143q-133 -96 -328 -96q-223 0 -358.5 130.5t-135.5 368.5zM281 565h528q-4 266 -256 266q-131 0 -198.5 -78.5t-73.5 -187.5zM430 1098l166 291h186 l-204 -291h-148z" />
<glyph unicode="&#xea;" d="M104 485q0 201 123 343.5t324 142.5q217 0 322.5 -129t105.5 -305q0 -61 -6 -91h-690q14 -315 323 -315q145 0 320 94v-143q-133 -96 -328 -96q-223 0 -358.5 130.5t-135.5 368.5zM281 565h528q-4 266 -256 266q-131 0 -198.5 -78.5t-73.5 -187.5zM285 1081l229 293h80 l229 -293h-135l-135 185l-135 -185h-133z" />
<glyph unicode="&#xeb;" d="M104 485q0 201 123 343.5t324 142.5q217 0 322.5 -129t105.5 -305q0 -61 -6 -91h-690q14 -315 323 -315q145 0 320 94v-143q-133 -96 -328 -96q-223 0 -358.5 130.5t-135.5 368.5zM256 1255q0 45 31.5 77t77 32t78 -32t32.5 -77t-32.5 -76.5t-78 -31.5t-77 31.5 t-31.5 76.5zM281 565h528q-4 266 -256 266q-131 0 -198.5 -78.5t-73.5 -187.5zM639 1255q0 45 30.5 77t76 32t78 -32t32.5 -77t-32.5 -76.5t-78 -31.5t-76 31.5t-30.5 76.5z" />
<glyph unicode="&#xec;" horiz-adv-x="583" d="M70 1389h186l166 -291h-148zM199 0q6 47 6 201v542q0 156 -6 205h188q-6 -49 -6 -203v-544q0 -158 6 -201h-188z" />
<glyph unicode="&#xed;" horiz-adv-x="583" d="M170 1098l166 291h186l-205 -291h-147zM199 0q6 47 6 201v542q0 156 -6 205h188q-6 -49 -6 -203v-544q0 -158 6 -201h-188z" />
<glyph unicode="&#xee;" horiz-adv-x="583" d="M23 1081l229 293h80l229 -293h-135l-135 185l-135 -185h-133zM199 0q6 47 6 201v542q0 156 -6 205h188q-6 -49 -6 -203v-544q0 -158 6 -201h-188z" />
<glyph unicode="&#xef;" horiz-adv-x="583" d="M-4 1255q0 45 31.5 77t77 32t78 -32t32.5 -77t-32.5 -76.5t-78 -31.5t-77 31.5t-31.5 76.5zM199 0q6 47 6 201v542q0 156 -6 205h188q-6 -49 -6 -203v-544q0 -158 6 -201h-188zM379 1255q0 45 30.5 77t75.5 32t78 -32t33 -77t-33 -76.5t-78 -31.5t-75.5 31.5t-30.5 76.5z " />
<glyph unicode="&#xf0;" horiz-adv-x="1157" d="M104 469q0 203 127 338t316 135q102 0 190 -43t133 -106q-41 254 -239 403l-250 -131l-43 74l211 110q-131 72 -303 99l18 135q256 -33 436 -154l215 113l46 -74l-185 -96q276 -242 277 -701q0 -270 -133.5 -428.5t-346.5 -158.5q-201 0 -335 139t-134 346zM285 469 q0 -145 82 -241.5t211 -96.5t210.5 101.5t81.5 250.5q0 141 -80.5 231.5t-211.5 90.5q-127 0 -210 -95.5t-83 -240.5z" />
<glyph unicode="&#xf1;" horiz-adv-x="1175" d="M80 838l43 110h203l10 -139q111 156 336 156q164 0 260 -102.5t96 -303.5v-336q0 -162 4 -223h-182q4 82 4 231v347q0 121 -66.5 180t-175.5 59q-176 0 -276 -178v-408q0 -162 4 -231h-182q4 147 4 231v607h-82zM317 1124q4 78 50.5 136.5t124.5 58.5q57 0 131.5 -47 t105.5 -47q63 0 70 84h104q-4 -80 -46 -138.5t-120 -58.5q-57 0 -134 46t-107 46q-57 0 -68 -80h-111z" />
<glyph unicode="&#xf2;" horiz-adv-x="1150" d="M104 471q0 207 137.5 351.5t333.5 144.5q201 0 337.5 -145.5t136.5 -350.5t-136.5 -346t-337 -141t-336 141t-135.5 346zM281 471q0 -141 84 -240.5t210 -99.5q131 0 213 98.5t82 241.5q0 150 -84 246t-211 96q-129 0 -211.5 -107.5t-82.5 -234.5zM344 1389h186l166 -291 h-147z" />
<glyph unicode="&#xf3;" horiz-adv-x="1150" d="M104 471q0 207 137.5 351.5t333.5 144.5q201 0 337.5 -145.5t136.5 -350.5t-136.5 -346t-337 -141t-336 141t-135.5 346zM281 471q0 -141 84 -240.5t210 -99.5q131 0 213 98.5t82 241.5q0 150 -84 246t-211 96q-129 0 -211.5 -107.5t-82.5 -234.5zM442 1098l166 291h187 l-205 -291h-148z" />
<glyph unicode="&#xf4;" horiz-adv-x="1150" d="M104 471q0 207 137.5 351.5t333.5 144.5q201 0 337.5 -145.5t136.5 -350.5t-136.5 -346t-337 -141t-336 141t-135.5 346zM281 471q0 -141 84 -240.5t210 -99.5q131 0 213 98.5t82 241.5q0 150 -84 246t-211 96q-129 0 -211.5 -107.5t-82.5 -234.5zM297 1081l229 293h80 l230 -293h-136l-135 185l-135 -185h-133z" />
<glyph unicode="&#xf5;" horiz-adv-x="1150" d="M104 471q0 207 137.5 351.5t333.5 144.5q201 0 337.5 -145.5t136.5 -350.5t-136.5 -346t-337 -141t-336 141t-135.5 346zM276 1124q4 78 50.5 136.5t124.5 58.5q57 0 131.5 -47t105.5 -47q63 0 70 84h104q-4 -80 -46 -138.5t-120 -58.5q-57 0 -134 46t-107 46 q-57 0 -68 -80h-111zM281 471q0 -141 84 -240.5t210 -99.5q131 0 213 98.5t82 241.5q0 150 -84 246t-211 96q-129 0 -211.5 -107.5t-82.5 -234.5z" />
<glyph unicode="&#xf6;" horiz-adv-x="1150" d="M104 471q0 207 137.5 351.5t333.5 144.5q201 0 337.5 -145.5t136.5 -350.5t-136.5 -346t-337 -141t-336 141t-135.5 346zM270 1255q0 45 32 77t77 32t77.5 -32t32.5 -77t-32.5 -76.5t-77.5 -31.5t-77 31.5t-32 76.5zM281 471q0 -141 84 -240.5t210 -99.5q131 0 213 98.5 t82 241.5q0 150 -84 246t-211 96q-129 0 -211.5 -107.5t-82.5 -234.5zM653 1255q0 45 31 77t76 32t77.5 -32t32.5 -77t-32.5 -76.5t-77.5 -31.5t-76 31.5t-31 76.5z" />
<glyph unicode="&#xf7;" horiz-adv-x="1095" d="M104 469v141h887v-141h-887zM440 207q0 47 31 79.5t76 32.5t77.5 -32.5t32.5 -79.5q0 -43 -32.5 -76t-77.5 -33q-43 0 -75 33t-32 76zM440 874.5q0 45.5 31 77t76 31.5t77.5 -31.5t32.5 -77t-32.5 -78t-77.5 -32.5q-43 0 -75 32.5t-32 78z" />
<glyph unicode="&#xf8;" horiz-adv-x="1173" d="M104 -18l142 161q-121 137 -121 328q0 207 138 351.5t335 144.5q158 0 281 -95l79 91h89l-117 -136q141 -145 141 -356q0 -205 -136 -346t-337 -141q-174 0 -305 110l-98 -112h-91zM303 471q0 -113 53 -201l418 482q-78 61 -176 61q-131 0 -213 -106.5t-82 -235.5z M399 217q80 -86 199 -86q131 0 213 98.5t82 241.5q0 137 -72 231z" />
<glyph unicode="&#xf9;" horiz-adv-x="1173" d="M80 838l45 110h221q-6 -49 -6 -213v-327q0 -279 211 -279q72 0 135.5 48t99.5 132v410q0 158 -4 229h185q-4 -68 -4 -223v-532q0 -129 16 -193h-152l-32 127q-98 -143 -285 -143q-346 0 -346 409v445h-84zM305 1389h187l165 -291h-147z" />
<glyph unicode="&#xfa;" horiz-adv-x="1173" d="M80 838l45 110h221q-6 -49 -6 -213v-327q0 -279 211 -279q72 0 135.5 48t99.5 132v410q0 158 -4 229h185q-4 -68 -4 -223v-532q0 -129 16 -193h-152l-32 127q-98 -143 -285 -143q-346 0 -346 409v445h-84zM403 1098l166 291h187l-205 -291h-148z" />
<glyph unicode="&#xfb;" horiz-adv-x="1173" d="M80 838l45 110h221q-6 -49 -6 -213v-327q0 -279 211 -279q72 0 135.5 48t99.5 132v410q0 158 -4 229h185q-4 -68 -4 -223v-532q0 -129 16 -193h-152l-32 127q-98 -143 -285 -143q-346 0 -346 409v445h-84zM258 1081l229 293h80l230 -293h-135l-136 185l-135 -185h-133z " />
<glyph unicode="&#xfc;" horiz-adv-x="1173" d="M80 838l45 110h221q-6 -49 -6 -213v-327q0 -279 211 -279q72 0 135.5 48t99.5 132v410q0 158 -4 229h185q-4 -68 -4 -223v-532q0 -129 16 -193h-152l-32 127q-98 -143 -285 -143q-346 0 -346 409v445h-84zM231 1255q0 45 32 77t77 32t78 -32t33 -77t-33 -76.5t-78 -31.5 t-77 31.5t-32 76.5zM614 1255q0 45 31 77t76 32t77.5 -32t32.5 -77t-32.5 -76.5t-77.5 -31.5t-76 31.5t-31 76.5z" />
<glyph unicode="&#xfd;" horiz-adv-x="1038" d="M37 948h207l67 -178l215 -555l217 545q23 57 64 188h194q-18 -39 -49.5 -112.5l-40.5 -94.5l-385 -884q-59 -139 -137 -198.5t-196 -59.5h-89l15 131q113 0 160 27.5t92 125.5l71 150l-292 663q-66 154 -113 252zM385 1098l166 291h186l-205 -291h-147z" />
<glyph unicode="&#xfe;" horiz-adv-x="1251" d="M199 -496q4 135 4 205v1571q0 129 -4 199h184l-6 -197v-424q115 115 293 115q211 0 345 -138.5t134 -351.5q0 -221 -137.5 -357t-349.5 -136q-141 0 -285 88v-373q0 -10 6 -201h-184zM377 246q111 -104 266 -105q154 0 241 93.5t87 247t-87 247.5t-237 94 q-154 0 -270 -112v-465z" />
<glyph unicode="&#xff;" horiz-adv-x="1038" d="M37 948h207l67 -178l215 -555l217 545q23 57 64 188h194q-18 -39 -49.5 -112.5l-40.5 -94.5l-385 -884q-59 -139 -137 -198.5t-196 -59.5h-89l15 131q113 0 160 27.5t92 125.5l71 150l-292 663q-66 154 -113 252zM211 1255q0 45 31.5 77t77 32t78 -32t32.5 -77 t-32.5 -76.5t-78 -31.5t-77 31.5t-31.5 76.5zM594 1255q0 45 30.5 77t75.5 32t78 -32t33 -77t-33 -76.5t-78 -31.5t-75.5 31.5t-30.5 76.5z" />
<glyph unicode="&#x152;" horiz-adv-x="1675" d="M117 686q0 301 200.5 495.5t501.5 194.5h359q238 0 350 4l-19 -161q-45 0 -151.5 2t-167.5 2h-166v-432h147q229 0 318 2v-154q-180 4 -318 4h-147v-489h203q236 0 317 2v-158q-82 2 -311 2h-414q-303 0 -502.5 192.5t-199.5 493.5zM309 686q0 -240 148.5 -387 t376.5 -147v1071q-229 0 -377 -148.5t-148 -388.5z" />
<glyph unicode="&#x153;" horiz-adv-x="1839" d="M104 471q0 207 137.5 351.5t333.5 144.5q125 0 222.5 -60.5t154.5 -165.5q51 106 145.5 168t221.5 62q217 0 322.5 -129t105.5 -305q0 -35 -6 -91h-690q14 -315 323 -315q145 0 320 94v-143q-137 -96 -330 -96q-293 0 -408 223q-57 -104 -156.5 -164.5t-224.5 -60.5 q-201 0 -336 141t-135 346zM281 471q0 -141 84 -240.5t210 -99.5q131 0 213 98.5t82 241.5q0 150 -84 246t-211 96q-129 0 -211.5 -107.5t-82.5 -234.5zM1049 565h528q-8 266 -256 266q-131 0 -198.5 -78.5t-73.5 -187.5z" />
<glyph unicode="&#x178;" horiz-adv-x="1234" d="M41 1376h219q18 -39 98 -182l267 -440l256 434q25 43 106 188h207q-14 -25 -71.5 -112.5t-86.5 -137.5l-325 -530v-274q0 -182 6 -322h-197q6 283 6 324v272l-325 530q-123 197 -160 250zM317 1644.5q0 45.5 32 77t77 31.5t78 -31.5t33 -77t-33 -77t-78 -31.5t-77 31.5 t-32 77zM700 1644.5q0 45.5 31 77t76 31.5t78 -31.5t33 -77t-33 -77t-78 -31.5t-76 31.5t-31 77z" />
<glyph unicode="&#x2000;" horiz-adv-x="904" />
<glyph unicode="&#x2001;" horiz-adv-x="1808" />
<glyph unicode="&#x2002;" horiz-adv-x="904" />
<glyph unicode="&#x2003;" horiz-adv-x="1808" />
<glyph unicode="&#x2004;" horiz-adv-x="602" />
<glyph unicode="&#x2005;" horiz-adv-x="452" />
<glyph unicode="&#x2006;" horiz-adv-x="301" />
<glyph unicode="&#x2007;" horiz-adv-x="301" />
<glyph unicode="&#x2008;" horiz-adv-x="226" />
<glyph unicode="&#x2009;" horiz-adv-x="361" />
<glyph unicode="&#x200a;" horiz-adv-x="100" />
<glyph unicode="&#x2010;" horiz-adv-x="702" d="M92 418v157h518v-157h-518z" />
<glyph unicode="&#x2011;" horiz-adv-x="702" d="M92 418v157h518v-157h-518z" />
<glyph unicode="&#x2012;" horiz-adv-x="702" d="M92 418v157h518v-157h-518z" />
<glyph unicode="&#x2013;" horiz-adv-x="1103" d="M92 426v145h922v-145h-922z" />
<glyph unicode="&#x2014;" horiz-adv-x="2054" d="M80 426v145h1894v-145h-1894z" />
<glyph unicode="&#x2018;" horiz-adv-x="456" d="M127 1133q0 166 96 335l113 -22q-47 -131 -47 -272q0 -104 22 -203l-164 -35q-20 115 -20 197z" />
<glyph unicode="&#x2019;" horiz-adv-x="421" d="M96 958q47 131 47 275q0 104 -22 201l164 34q20 -92 20 -196q0 -160 -94 -336z" />
<glyph unicode="&#x201a;" horiz-adv-x="421" d="M96 -330q47 131 47 273q0 104 -22 202l164 35q20 -96 20 -196q0 -164 -94 -336z" />
<glyph unicode="&#x201c;" horiz-adv-x="874" d="M127 1133q0 166 96 335l113 -22q-47 -131 -47 -272q0 -104 22 -203l-164 -35q-20 115 -20 197zM543 1133q0 160 96 335l113 -22q-47 -141 -47 -272q0 -104 22 -203l-162 -35q-22 105 -22 197z" />
<glyph unicode="&#x201d;" horiz-adv-x="837" d="M96 958q47 131 47 275q0 104 -22 201l164 34q20 -92 20 -196q0 -160 -94 -336zM514 958q47 141 47 275q0 104 -22 201l161 34q23 -100 23 -196q0 -156 -96 -336z" />
<glyph unicode="&#x201e;" horiz-adv-x="837" d="M96 -328q47 131 47 273q0 104 -22 202l164 35q20 -96 20 -196q0 -164 -94 -336zM514 -328q47 141 47 273q0 104 -22 202l161 35q23 -104 23 -196q0 -160 -96 -336z" />
<glyph unicode="&#x2022;" horiz-adv-x="759" d="M164 557q0 90 63.5 154.5t151.5 64.5q90 0 153.5 -64.5t63.5 -154.5t-63.5 -154.5t-153.5 -64.5q-88 0 -151.5 64.5t-63.5 154.5z" />
<glyph unicode="&#x2026;" horiz-adv-x="1746" d="M137 104q0 51 38 88t85 37q49 0 85 -35.5t36 -87.5q0 -47 -37 -83.5t-88 -38.5q-47 0 -83 35.5t-36 84.5zM752 104q0 51 37.5 88t84.5 37q49 0 85 -35.5t36 -87.5q0 -47 -36.5 -83.5t-88.5 -38.5q-47 0 -82.5 35.5t-35.5 84.5zM1366 104q0 51 38 88t85 37q49 0 85 -35.5 t36 -87.5q0 -47 -37 -83.5t-88 -38.5q-47 0 -83 35.5t-36 84.5z" />
<glyph unicode="&#x202f;" horiz-adv-x="361" />
<glyph unicode="&#x2039;" horiz-adv-x="706" d="M98 455v20l486 397v-155l-303 -252l307 -248v-158z" />
<glyph unicode="&#x203a;" horiz-adv-x="706" d="M119 713v159l489 -395v-22l-485 -396v156l303 252z" />
<glyph unicode="&#x205f;" horiz-adv-x="452" />
<glyph unicode="&#x20ac;" horiz-adv-x="1085" d="M72 487v99h137q-2 27 -2 84q0 31 4 92h-139v98h151q39 236 175.5 375t351.5 139q119 0 249 -49v-174q-94 72 -235 72t-233.5 -94.5t-124.5 -268.5h481l-15 -98h-477q-4 -57 -4 -88t4 -88h467l-14 -99h-440q33 -172 124 -264t226 -92q145 0 239 70l27 -164 q-125 -53 -279 -53q-225 0 -357 135t-169 368h-147z" />
<glyph unicode="&#x2122;" horiz-adv-x="1480" d="M59 1280v96h502v-96h-196v-377q0 -111 2 -153h-121q6 92 6 151v379h-193zM655 750q2 18 7 149l16 481h94l234 -399l227 399h94l19 -481q6 -129 8 -149h-113q0 94 -2 135l-14 297l-205 -318h-33l-203 346l-10 -327q0 -2 -1 -44t-1 -89h-117z" />
<glyph unicode="&#x25fc;" horiz-adv-x="952" d="M0 0v952h952v-952h-952z" />
</font>
</defs>
</svg>
